<?xml version="1.0" encoding="UTF-8" standalone="no"?>
<!-- Created with Inkscape (http://www.inkscape.org/) -->

<svg
   xmlns:dc="http://purl.org/dc/elements/1.1/"
   xmlns:cc="http://creativecommons.org/ns#"
   xmlns:rdf="http://www.w3.org/1999/02/22-rdf-syntax-ns#"
   xmlns:svg="http://www.w3.org/2000/svg"
   xmlns="http://www.w3.org/2000/svg"
   xmlns:sodipodi="http://sodipodi.sourceforge.net/DTD/sodipodi-0.dtd"
   xmlns:inkscape="http://www.inkscape.org/namespaces/inkscape"
   id="svg3226"
   version="1.1"
   inkscape:version="0.47 r22583"
   width="429.712344298"
   height="232.713817341" viewBox="0 0 478.25049 259.0"
   sodipodi:docname="2017-01-21 00_40_31-MRI Logo Color.png">
  <metadata
     id="metadata3232">
    <rdf:RDF>
      <cc:Work
         rdf:about="">
        <dc:format>image/svg+xml</dc:format>
        <dc:type
           rdf:resource="http://purl.org/dc/dcmitype/StillImage" />
        <dc:title></dc:title>
      </cc:Work>
    </rdf:RDF>
  </metadata>
  <defs
     id="defs3230">
    <inkscape:perspective
       sodipodi:type="inkscape:persp3d"
       inkscape:vp_x="0 : 0.5 : 1"
       inkscape:vp_y="0 : 1000 : 0"
       inkscape:vp_z="1 : 0.5 : 1"
       inkscape:persp3d-origin="0.5 : 0.33333333 : 1"
       id="perspective3234" />
  </defs>
  <sodipodi:namedview
     pagecolor="#ffffff"
     bordercolor="#666666"
     borderopacity="1"
     objecttolerance="10"
     gridtolerance="10"
     guidetolerance="10"
     inkscape:pageopacity="0"
     inkscape:pageshadow="2"
     inkscape:window-width="668"
     inkscape:window-height="483"
     id="namedview3228"
     showgrid="false"
     inkscape:zoom="0.91119691"
     inkscape:cx="313.29461"
     inkscape:cy="113.73623"
     inkscape:window-x="1612"
     inkscape:window-y="557"
     inkscape:window-maximized="0"
     inkscape:current-layer="svg3226" />
  <g
     id="g3238"
     transform="matrix(0.25,0,0,0.25,4.8782e-4,0)">
    <path
       style="fill:#fdfdfd"
       d="M 0,518 0,0 956.5,0 1913,0 l 0,518 0,518 -956.5,0 L 0,1036 0,518 z"
       id="path3254" />
    <path
       style="fill:#c7db5f"
       d="m 572.5,1034.5943 c -12.77902,-3.1581 -21.80051,-11.9892 -24.47296,-23.9564 -1.39739,-6.2576 -0.33496,-7.643 5.8454,-7.6226 5.84235,0.019 6.67739,0.6057 7.53982,5.2944 0.93476,5.0818 6.53339,11.1222 12.37746,13.3541 7.18831,2.7452 17.35357,2.375 24.43402,-0.8898 6.61646,-3.0509 9.76681,-7.2655 9.77252,-13.0737 0.009,-8.75164 -4.21084,-12.02249 -25.51538,-19.77906 -16.05994,-5.8471 -20.17304,-7.83404 -25.01199,-12.0827 C 552.06869,971.0971 550,966.25477 550,958.35556 c 0,-11.63573 5.99129,-19.83892 17.92065,-24.53671 7.76826,-3.05915 24.13341,-3.22224 31.99436,-0.31885 C 609.48384,937.03419 619,947.94505 619,955.38211 619,958.1632 617.37114,959 611.95764,959 c -4.25509,0 -5.06817,-0.62939 -8.28291,-6.41159 -2.76564,-4.97443 -7.96352,-7.68289 -15.96374,-8.31822 -7.95171,-0.63148 -13.96625,1.02039 -18.35305,5.04059 -6.17648,5.66032 -5.64175,15.49659 1.06787,19.64337 1.75477,1.0845 9.91432,4.27954 18.13234,7.10008 21.37901,7.33758 27.93097,11.50569 32.07498,20.4049 2.80782,6.02977 3.17727,15.65977 0.81804,21.32297 -3.32605,7.9841 -12.66034,14.8465 -23.25039,17.0935 -6.79123,1.441 -19.28497,1.3042 -25.70078,-0.2813 z m 532.9752,-0.4626 c -3.3137,-0.9492 -8.0996,-3.1532 -10.6353,-4.8979 -7.5483,-5.1933 -13.467,-15.9835 -12.649,-23.06 0.2968,-2.567 0.5488,-2.6738 6.3091,-2.6738 l 6,0 1.5,4.589 c 2.3214,7.1017 4.6927,9.881 10.827,12.6893 6.9523,3.1829 18.2577,3.5597 24.673,0.8224 11.8251,-5.0457 14.7129,-17.1581 5.8355,-24.47572 -2.169,-1.78781 -10.1876,-5.43411 -20.2152,-9.19238 -19.7585,-7.40532 -25.9224,-11.03235 -29.6982,-17.47526 -5.2958,-9.03662 -3.8925,-21.57722 3.2359,-28.91706 11.361,-11.69803 35.2663,-13.94507 50.342,-4.73202 7.3023,4.46254 14.6802,17.4623 11.8476,20.87532 -0.6327,0.76241 -3.1648,1.31642 -6.0166,1.31642 -4.528,0 -5.061,-0.25923 -6.6275,-3.22348 -4.3275,-8.18887 -10.5726,-11.75951 -20.5875,-11.77094 -14.6151,-0.0167 -23.8729,9.67082 -18.9218,19.8001 2.2895,4.68383 6.2116,6.82035 23.1559,12.61385 7.3425,2.51051 15.5273,5.74959 18.1884,7.19796 12.3784,6.73715 17.6107,17.12141 14.9893,29.74851 -2.1831,10.516 -11.5961,19.0662 -23.6565,21.4883 -8.1007,1.6269 -20.8467,1.2967 -27.8961,-0.7226 z m 107.8092,0.3729 c -13.683,-3.3429 -24.4792,-14.903 -28.9559,-31.0046 -2.3128,-8.31864 -2.7998,-24.82616 -1.0101,-34.23644 4.8802,-25.65967 21.7772,-39.53772 46.2775,-38.0092 19.6836,1.22802 35.0867,15.15679 39.3071,35.54486 1.8439,8.90728 1.3791,27.77777 -0.904,36.70468 -4.3683,17.08 -14.7916,27.717 -30.499,31.1243 -7.4196,1.6095 -17.3289,1.5589 -24.2156,-0.1236 z m 22.9209,-13.0589 c 9.5825,-3.2651 15.565,-11.1475 18.3166,-24.13393 4.0148,-18.94759 -0.1737,-37.31794 -10.6578,-46.74403 -12.9766,-11.66706 -34.1155,-7.56518 -42.2368,8.19576 -3.3042,6.41254 -4.7137,13.82782 -4.7019,24.7365 0.022,20.738 4.9708,31.1916 17.5746,37.1262 5.9881,2.8195 14.8533,3.1542 21.7053,0.8195 z M 0,983.43458 0,932.86916 23.75,933.18458 47.5,933.5 l 6.673279,3.26447 c 11.258134,5.5073 16.235108,13.55857 16.217765,26.23553 -0.02008,14.67467 -7.851145,24.81113 -22.744798,29.44064 -1.019565,0.31692 -1.63402,1.14884 -1.365456,1.8487 0.268564,0.69987 6.165254,9.47686 13.103754,19.50436 C 66.323045,1023.8212 72,1032.4698 72,1033.0128 72,1033.5827 68.510102,1034 63.74422,1034 l -8.25578,0 -12.530987,-19.75 -12.530987,-19.75 -8.463233,0 -8.463233,0 -0.27114,19.75 -0.27114,19.75 -6.4788599,0 L 0,1034 0,983.43458 z m 46.698307,-2.69985 c 1.759068,-0.95294 4.459068,-3.38557 6,-5.40584 C 55.197596,972.05216 55.5,970.83776 55.5,964.07784 c 0,-8.94398 -2.055453,-12.74222 -8.834215,-16.32464 -3.579251,-1.89155 -6.120045,-2.25427 -18.045684,-2.57619 -10.872967,-0.29351 -14.06508,-0.0825 -14.734688,0.97415 -1.051892,1.65987 -1.177207,35.22284 -0.135413,36.26775 0.4125,0.41374 7.275,0.59389 15.25,0.40035 11.36448,-0.2758 15.191611,-0.72656 17.698307,-2.08453 z M 107.24075,983.75 107.5,933.5 l 31,0 31,0 0,5.5 0,5.5 -24,0.5 -24,0.5 -0.27539,15.75 -0.2754,15.75 21.7754,0.0153 c 11.97646,0.008 22.36536,0.38946 23.08644,0.84675 0.8678,0.55034 1.20589,2.48915 1,5.73469 L 166.5,988.5 144,989 l -22.5,0.5 -0.27477,16.25 -0.27477,16.25 22.94298,0 c 12.61864,0 23.65479,0.2731 24.52477,0.607 1.17182,0.4497 1.58179,2.0048 1.58179,6 l 0,5.393 -31.50925,0 -31.50925,0 0.25925,-50.25 z M 195,1032.9231 c 0,-1.8615 33.10215,-97.29151 34.22709,-98.6731 0.64852,-0.79648 3.71301,-1.25 8.44638,-1.25 l 7.42858,0 1.34628,3.25 c 1.96898,4.75324 32.55167,95.7902 32.55167,96.8981 0,0.5258 -3.14765,0.8101 -7.14743,0.6457 l -7.14743,-0.2938 -4.10257,-12 -4.10257,-12 -19.5,0 -19.5,0 -4.10257,12 -4.10257,12 -7.14743,0.2938 C 197.20785,1033.9969 195,1033.7279 195,1032.9231 z m 56.41328,-35.78278 c 0.60408,-0.97743 -12.90931,-42.03635 -14.28926,-43.4163 C 236.3085,952.9085 222,993.61492 222,996.75052 222,997.69215 225.55805,998 236.44098,998 c 7.94254,0 14.68008,-0.38686 14.9723,-0.85968 z m 57.05093,35.62508 c -0.26666,-0.696 -0.36769,-23.3154 -0.22452,-50.2654 l 0.26031,-49 6.5,0 6.5,0 0.2604,44.25 0.2604,44.25 21.36716,0 c 24.072,0 23.94233,-0.04 23.42315,7.1761 L 366.5,1033.5 l -28.77548,0.2654 c -22.48074,0.2073 -28.88155,-0.012 -29.26031,-1 z M 453.24074,983.76426 453.5,933.5 l 31,0 31,0 0,5.5 0,5.5 -24.25,0.26778 -24.25,0.26778 0,15.98222 0,15.98222 21.30887,0 c 24.61587,0 25.00235,0.11095 24.50907,7.03626 L 512.5,988.5 490,989 l -22.5,0.5 -0.27477,16.25 -0.27477,16.25 23.40232,0 c 26.32366,0 25.98159,-0.096 25.45833,7.1761 L 515.5,1033.5 l -31.25926,0.2643 -31.25925,0.2642 0.25925,-50.26424 z M 673.46931,1032.75 c -0.25736,-0.6875 -0.58074,-20.6 -0.71862,-44.25 l -0.25069,-43 -15.45777,-0.27717 c -10.83033,-0.19419 -15.69035,-0.64323 -16.23469,-1.5 -1.01598,-1.59911 -1.00001,-7.8714 0.0241,-9.48474 0.6272,-0.98801 9.25175,-1.20507 39.73469,-1 L 719.5,933.5 l 0,5.5 0,5.5 -16,0.5 -16,0.5 -0.2604,44.25 -0.2604,44.25 -6.52099,0 c -4.30056,0 -6.68031,-0.4256 -6.9889,-1.25 z m 57.58204,-0.5 c 0.0283,-0.9625 7.56575,-23.575 16.75,-50.25 L 764.5,933.5 l 8.36077,0 8.36078,0 16.38922,48.4623 C 806.62485,1008.6166 814,1031.2496 814,1032.258 c 0,1.626 -0.76361,1.7999 -6.75,1.5377 l -6.75,-0.2957 -3.75241,-10.9004 c -2.06382,-5.9953 -4.25642,-11.5078 -4.87244,-12.25 -1.55675,-1.8758 -37.14155,-1.9675 -38.61884,-0.1 -0.54372,0.6875 -2.66103,6.3125 -4.70513,12.5 l -3.71654,11.25 -6.91732,0 c -5.94082,0 -6.91007,-0.247 -6.86597,-1.75 z M 787,996.22116 c 0,-2.00806 -12.21248,-38.99453 -13.82283,-41.86353 -1.25327,-2.23283 -0.23982,-4.6685 -9.08041,21.82336 -3.79579,11.37455 -6.64539,20.93705 -6.33243,21.25 0.31295,0.31296 7.019,0.56901 14.90234,0.56901 C 785.73931,998 787,997.84354 787,996.22116 z m 67.98469,-5.42547 c -0.008,-23.81263 -0.36493,-43.84597 -0.79223,-44.51852 -0.54434,-0.85677 -5.40436,-1.30581 -16.23469,-1.5 L 822.5,944.5 l 0,-5.5 0,-5.5 39.30025,-0.26165 39.30025,-0.26166 -0.30025,5.76166 L 900.5,944.5 l -15.73962,0.27534 -15.73961,0.27534 -0.26039,44.22466 L 868.5,1033.5 l -6.75,0.2957 -6.75,0.2957 -0.0153,-43.29571 z M 927.24074,983.76426 927.5,933.5 l 31,0 31,0 0,5.5 0,5.5 -24.25,0.26778 -24.25,0.26778 0,15.98222 0,15.98222 21.87756,0 c 24.63656,0 24.45382,-0.0548 23.93355,7.1761 L 986.5,988.5 964,989 l -22.5,0.5 -0.27477,16.25 -0.27477,16.25 23.40232,0 c 26.32366,0 25.98159,-0.096 25.45833,7.1761 L 989.5,1033.5 l -31.25926,0.2643 -31.25925,0.2642 0.25925,-50.26424 z m 372.99996,0.0316 0.2593,-50.2959 30.5,0 30.5,0 0,5.5 0,5.5 -23.75,0.2681 -23.75,0.2681 0,15.9819 0,15.9819 21.9809,0 21.981,0 0.5927,2.36163 c 0.326,1.29889 0.4471,3.88639 0.2691,5.75 L 1358.5,988.5 l -22,0.5 -22,0.5 -0.5,22 -0.5,22 -6.7593,0.2959 -6.7592,0.2959 0.2592,-50.2959 z m 113.5197,5.99955 L 1413.5,945.5 l -16,-0.5 -16,-0.5 0,-5.5 0,-5.5 38.9336,-0.26191 c 30.483,-0.20507 39.1075,0.012 39.7347,1 1.2796,2.01576 0.9552,8.41452 -0.4873,9.6117 -0.7889,0.65468 -7.3203,1.20632 -16.25,1.37244 L 1428.5,945.5 l -0.5,44 -0.5,44 -6.7396,0.2955 -6.7395,0.2954 -0.2605,-44.29545 z m 89.8725,33.45459 c -12.3196,-37.49156 -27.6963,-87.64256 -27.238,-88.83681 0.6595,-1.71869 13.1138,-2.01724 14.1508,-0.33923 0.3651,0.59071 5.6792,18.27599 11.8091,39.30064 6.1298,21.02464 11.5322,38.4289 12.0052,38.676 0.4729,0.2472 5.9658,-14.55592 12.2064,-32.8957 6.2406,-18.33978 11.8712,-33.97728 12.5125,-34.75 1.7972,-2.16549 7.6685,-1.78232 9.1547,0.59745 0.6878,1.10132 6.2041,16.73882 12.2584,34.75 6.0544,18.01119 11.4198,32.74765 11.923,32.74765 0.5033,0 6.6676,-17.25092 13.6984,-38.33533 7.0308,-21.08442 13.3116,-38.97192 13.9574,-39.75 0.7876,-0.949 3.2736,-1.41471 7.5516,-1.41471 5.3978,0 6.3814,0.26885 6.4023,1.75 0.014,0.9625 -7.7059,23.70518 -17.1545,50.53928 l -17.1793,48.78936 -7.4944,-0.2893 -7.4945,-0.2893 -10.101,-29.7383 c -5.5555,-16.35609 -10.4934,-29.61279 -10.973,-29.45936 -0.4796,0.15344 -2.5406,4.98567 -4.58,10.73829 -2.0394,5.75263 -6.7668,19.12187 -10.5054,29.70937 l -6.7974,19.25 -7.2899,0 -7.2899,0 -3.5325,-10.75 z m 121.9949,9.9568 c -0.5178,-0.8378 31.9876,-96.34006 33.6812,-98.95684 0.5258,-0.81244 3.3709,-1.25 8.1276,-1.25 4.6611,0 7.6773,0.45388 8.3067,1.25 0.9329,1.18008 33.2567,97.40304 33.2567,99.00014 0,0.4124 -3.0984,0.7499 -6.8854,0.7499 l -6.8855,0 -4.3793,-12.25 -4.3793,-12.25 -19.3526,0 -19.3526,0 -4.2411,12 -4.2411,12 -6.5555,0.2937 c -3.6055,0.1616 -6.8004,-0.1025 -7.0998,-0.5869 z m 55.8055,-36.09899 c 0.6112,-0.9888 -13.5844,-44.10394 -14.5218,-44.10634 -0.6723,-0.002 -14.9482,41.84132 -14.926,43.74849 0.017,1.4896 28.5342,1.83614 29.4478,0.35785 z m 57.025,35.64219 c -0.2634,-0.6875 -0.3618,-23.3 -0.2186,-50.25004 l 0.2603,-49 23.5,0 c 17.7945,0 24.3498,0.3395 27,1.39837 11.2866,4.5094 18.2787,12.39982 19.8126,22.35812 2.3713,15.39522 -4.7808,28.60762 -18.1945,33.61136 -2.7683,1.03267 -5.1726,2.29556 -5.3429,2.80643 -0.1702,0.51087 5.5482,9.42126 12.7076,19.80086 7.1595,10.3796 13.0172,19.2438 13.0172,19.6984 0,0.4546 -3.7751,0.8265 -8.3891,0.8265 l -8.3891,0 -12.6723,-20 -12.6722,-20.00004 -8.4387,0 -8.4386,0 0,20.00004 0,20 -6.5314,0 c -4.303,0 -6.6948,-0.4265 -7.0103,-1.25 z m 43.6425,-50.90299 c 11.2114,-3.80272 16.0219,-15.3744 10.9938,-26.44598 -3.7564,-8.27124 -10.2904,-10.64534 -28.0946,-10.20807 l -12.5,0.307 -0.2745,17.46487 c -0.151,9.60567 -0.053,18.04317 0.2186,18.75 0.6437,1.67759 24.7832,1.78518 29.6567,0.13218 z m 57.5659,51.48629 c -0.833,-0.8329 -0.8909,-96.58562 -0.06,-98.75155 0.5354,-1.39523 4.2565,-1.58179 31.5499,-1.58179 l 30.9429,0 -0.2999,5.75 -0.2999,5.75 -24,0.5 -24,0.5 0,15.5 0,15.5 22.2881,0.5 c 24.1224,0.54115 24.1644,0.55185 24.1966,6.16821 0.034,6.01152 0.742,5.83042 -22.8417,5.8471 -11.9036,0.008 -22.2176,0.37999 -22.92,0.8257 -0.9661,0.61311 -1.2095,4.56515 -1,16.23473 l 0.277,15.4243 24,0.5 24,0.5 0.2999,5.75 0.2999,5.75 -30.8832,0 c -16.9858,0 -31.1833,-0.3 -31.5499,-0.6667 z m 38.537,-182.8493 c -36.9176,-19.66873 -66.0623,-49.07918 -92.2032,-93.04392 -20.2701,-34.09087 -34.241,-71.7461 -41.9032,-112.94012 -5.7932,-31.14521 -5.4524,-17.21723 -5.8174,-237.7707 -0.2933,-177.20258 -0.1512,-202.84146 1.1267,-203.33182 1.746,-0.67002 9.3738,4.36617 27.5934,18.21828 18.2977,13.91151 30.0044,24.03802 45.8847,39.69108 45.2529,44.60545 70.4827,87.32798 77.7256,131.61573 1.1746,7.18209 1.4002,45.29229 1.3866,234.27076 -0.01,124.13133 -0.285,226.39383 -0.6135,227.25 -0.895,2.33233 -1.9854,2.00478 -13.1797,-3.95929 z M 527.2,848.8 c -0.92475,-0.92475 -1.2,-43.94209 -1.2,-187.53941 0,-123.84278 -0.35368,-189.59626 -1.05452,-196.05 -4.58958,-42.2635 -19.93678,-79.49741 -45.35593,-110.03824 -16.00222,-19.2265 -38.08729,-35.36887 -62.96875,-46.02498 -39.79778,-17.04438 -91.64043,-19.58845 -134.41857,-6.5963 -34.37718,10.44069 -62.966,29.90954 -85.82869,58.44893 -3.30451,4.125 -7.56041,9.10822 -9.45756,11.07382 -1.89714,1.9656 -6.20757,8.9406 -9.57871,15.5 -11.80809,22.97556 -18.29368,44.45367 -22.47394,74.42618 -0.86154,6.17729 -1.34642,60.00954 -1.77441,197 L 152.5,847.5 l -70,0.25984 C 17.57928,848.00082 12.409299,847.89625 11.25,846.31871 10.256281,844.96648 10,780.39848 10,531.39066 10,359.11576 10.273145,217.45177 10.606989,216.58179 10.940833,215.7118 11.700541,215 12.295229,215 c 0.594688,0 5.384043,3.25067 10.643011,7.22371 11.792377,8.90889 32.439106,29.37952 45.413628,45.02629 5.689075,6.8608 10.451653,11.72533 11.4457,11.69072 0.936337,-0.0326 4.852432,-3.89002 8.702432,-8.57203 15.09609,-18.35846 42.70269,-43.15741 63.5,-57.04192 27.42807,-18.31128 57.88875,-32.29635 91.27412,-41.90567 50.99446,-14.67774 112.50091,-17.03113 163.72588,-6.26456 30.99959,6.51556 69.71494,21.38359 86,33.02699 3.025,2.16279 10.675,7.34138 17,11.50798 32.00425,21.0828 61.79079,51.97043 82.02628,85.05849 2.43861,3.9875 4.89281,7.23724 5.45378,7.22164 0.56097,-0.0156 2.55124,-2.6031 4.42284,-5.75 10.34339,-17.39139 26.28606,-37.53783 42.53909,-53.7558 55.83461,-55.71418 133.56101,-84.73653 220.02439,-82.15516 77.0404,2.30004 143.39532,25.96096 200.03362,71.32819 35.2715,28.25244 67.9481,70.56345 87.4298,113.2075 17.2051,37.66064 27.2647,76.27622 31.0404,119.15363 0.6385,7.25051 1.0159,80.46844 1.0212,198.14301 0.01,169.27653 -0.1386,186.69949 -1.5732,187.25 -2.3436,0.89932 -138.7124,0.70715 -140.1361,-0.19748 -0.9483,-0.60256 -1.2881,-42.70824 -1.5351,-190.23469 -0.3164,-188.87644 -0.3241,-189.5017 -2.4858,-202.70806 -4.1678,-25.46214 -10.5695,-45.82712 -20.4357,-65.01026 -22.58638,-43.91526 -57.90591,-74.02494 -103.42026,-88.16516 -43.64266,-13.55874 -95.60847,-11.23982 -136.02604,6.07001 -24.92398,10.67432 -46.17093,26.15793 -62.81097,45.77318 -25.01764,29.49076 -40.92549,68.03908 -45.51371,110.29004 C 669.35383,471.66292 669,537.19837 669,660.52633 c 0,126.02998 -0.33227,186.22601 -1.03518,187.53941 -1.00816,1.88377 -2.84337,1.93426 -70.3,1.93426 -52.53931,0 -69.55459,-0.28977 -70.46482,-1.2 z m 693.4667,-0.46667 C 1220.3,847.96667 1220,705.99167 1220,532.83333 1220,269.48365 1220.2204,218 1221.3475,218 c 1.8196,0 16.8961,11.40569 29.1525,22.05453 10.9568,9.51966 25.1928,24.04674 33,33.67459 2.75,3.39132 5.675,6.18794 6.5,6.21472 0.825,0.0268 3.7197,-2.69778 6.4328,-6.05458 2.713,-3.3568 9.409,-10.79165 14.88,-16.52188 44.8647,-46.99074 108.0769,-80.02047 174.6872,-91.27783 23.7209,-4.00891 31.9234,-4.5905 64,-4.53783 34.5714,0.0568 46.9499,1.32331 72.5159,7.41969 23.1166,5.51233 51.4826,15.97267 69.9841,25.80757 l 7,3.72102 0.2557,84.25 c 0.2117,69.75834 0.026,84.25 -1.0805,84.25 -0.7349,0 -2.8627,-2.1375 -4.7284,-4.75 -4.6044,-6.4475 -19.8358,-22.11724 -27.8752,-28.67754 C 1645.211,316.54991 1618.8406,304.11178 1591,298.16346 1577.4433,295.26698 1564.2334,294 1547.5906,294 c -64.7503,0 -119.0836,28.04618 -152.2778,78.60398 -15.3369,23.35954 -24.8484,47.91167 -30.5641,78.89602 l -2.2137,12 -0.2557,190.5 c -0.1407,104.775 -0.4946,191.5125 -0.7866,192.75 l -0.5308,2.25 -69.8143,0 c -38.3978,0 -70.1143,-0.3 -70.4809,-0.66667 z M 1818,172.28036 c -23.5301,-2.68628 -45.8037,-15.27378 -59.675,-33.72424 -5.8663,-7.80288 -11.7207,-19.48765 -14.4,-28.74112 -2.8768,-9.9354 -3.705,-30.533332 -1.6218,-40.331516 6.5805,-30.950182 28.6223,-55.532412 58.6251,-65.3817959 3.4992,-1.1487567 11.1344,-2.6182453 16.967,-3.26553015 19.2338,-2.13451705 37.1654,1.89386025 54.8995,12.33332105 8.6742,5.106195 23.1089,19.910054 28.5561,29.286518 C 1909.14,55.863412 1913,70.316419 1913,86.073192 c 0,32.411608 -16.8078,60.856328 -45.0702,76.274718 -14.5483,7.93676 -33.8237,11.77117 -49.9298,9.93245 z"
       id="path3252" />
    <path
       style="fill:#9ba0a2"
       d="m 572.5,1034.5943 c -12.77902,-3.1581 -21.80051,-11.9892 -24.47296,-23.9564 -1.39739,-6.2576 -0.33496,-7.643 5.8454,-7.6226 5.84235,0.019 6.67739,0.6057 7.53982,5.2944 0.93476,5.0818 6.53339,11.1222 12.37746,13.3541 7.18831,2.7452 17.35357,2.375 24.43402,-0.8898 6.61646,-3.0509 9.76681,-7.2655 9.77252,-13.0737 0.009,-8.75164 -4.21084,-12.02249 -25.51538,-19.77906 -16.05994,-5.8471 -20.17304,-7.83404 -25.01199,-12.0827 C 552.06869,971.0971 550,966.25477 550,958.35556 c 0,-11.63573 5.99129,-19.83892 17.92065,-24.53671 7.76826,-3.05915 24.13341,-3.22224 31.99436,-0.31885 C 609.48384,937.03419 619,947.94505 619,955.38211 619,958.1632 617.37114,959 611.95764,959 c -4.25509,0 -5.06817,-0.62939 -8.28291,-6.41159 -2.76564,-4.97443 -7.96352,-7.68289 -15.96374,-8.31822 -7.95171,-0.63148 -13.96625,1.02039 -18.35305,5.04059 -6.17648,5.66032 -5.64175,15.49659 1.06787,19.64337 1.75477,1.0845 9.91432,4.27954 18.13234,7.10008 21.37901,7.33758 27.93097,11.50569 32.07498,20.4049 2.80782,6.02977 3.17727,15.65977 0.81804,21.32297 -3.32605,7.9841 -12.66034,14.8465 -23.25039,17.0935 -6.79123,1.441 -19.28497,1.3042 -25.70078,-0.2813 z m 532.9752,-0.4626 c -3.3137,-0.9492 -8.0996,-3.1532 -10.6353,-4.8979 -7.5483,-5.1933 -13.467,-15.9835 -12.649,-23.06 0.2968,-2.567 0.5488,-2.6738 6.3091,-2.6738 l 6,0 1.5,4.589 c 2.3214,7.1017 4.6927,9.881 10.827,12.6893 6.9523,3.1829 18.2577,3.5597 24.673,0.8224 11.8251,-5.0457 14.7129,-17.1581 5.8355,-24.47572 -2.169,-1.78781 -10.1876,-5.43411 -20.2152,-9.19238 -19.7585,-7.40532 -25.9224,-11.03235 -29.6982,-17.47526 -5.2958,-9.03662 -3.8925,-21.57722 3.2359,-28.91706 11.361,-11.69803 35.2663,-13.94507 50.342,-4.73202 7.3023,4.46254 14.6802,17.4623 11.8476,20.87532 -0.6327,0.76241 -3.1648,1.31642 -6.0166,1.31642 -4.528,0 -5.061,-0.25923 -6.6275,-3.22348 -4.3275,-8.18887 -10.5726,-11.75951 -20.5875,-11.77094 -14.6151,-0.0167 -23.8729,9.67082 -18.9218,19.8001 2.2895,4.68383 6.2116,6.82035 23.1559,12.61385 7.3425,2.51051 15.5273,5.74959 18.1884,7.19796 12.3784,6.73715 17.6107,17.12141 14.9893,29.74851 -2.1831,10.516 -11.5961,19.0662 -23.6565,21.4883 -8.1007,1.6269 -20.8467,1.2967 -27.8961,-0.7226 z m 107.8092,0.3729 c -13.683,-3.3429 -24.4792,-14.903 -28.9559,-31.0046 -2.3128,-8.31864 -2.7998,-24.82616 -1.0101,-34.23644 4.8802,-25.65967 21.7772,-39.53772 46.2775,-38.0092 19.6836,1.22802 35.0867,15.15679 39.3071,35.54486 1.8439,8.90728 1.3791,27.77777 -0.904,36.70468 -4.3683,17.08 -14.7916,27.717 -30.499,31.1243 -7.4196,1.6095 -17.3289,1.5589 -24.2156,-0.1236 z m 22.9209,-13.0589 c 9.5825,-3.2651 15.565,-11.1475 18.3166,-24.13393 4.0148,-18.94759 -0.1737,-37.31794 -10.6578,-46.74403 -12.9766,-11.66706 -34.1155,-7.56518 -42.2368,8.19576 -3.3042,6.41254 -4.7137,13.82782 -4.7019,24.7365 0.022,20.738 4.9708,31.1916 17.5746,37.1262 5.9881,2.8195 14.8533,3.1542 21.7053,0.8195 z M 0,983.43458 0,932.86916 23.75,933.18458 47.5,933.5 l 6.673279,3.26447 c 11.258134,5.5073 16.235108,13.55857 16.217765,26.23553 -0.02008,14.67467 -7.851145,24.81113 -22.744798,29.44064 -1.019565,0.31692 -1.63402,1.14884 -1.365456,1.8487 0.268564,0.69987 6.165254,9.47686 13.103754,19.50436 C 66.323045,1023.8212 72,1032.4698 72,1033.0128 72,1033.5827 68.510102,1034 63.74422,1034 l -8.25578,0 -12.530987,-19.75 -12.530987,-19.75 -8.463233,0 -8.463233,0 -0.27114,19.75 -0.27114,19.75 -6.4788599,0 L 0,1034 0,983.43458 z m 46.698307,-2.69985 c 1.759068,-0.95294 4.459068,-3.38557 6,-5.40584 C 55.197596,972.05216 55.5,970.83776 55.5,964.07784 c 0,-8.94398 -2.055453,-12.74222 -8.834215,-16.32464 -3.579251,-1.89155 -6.120045,-2.25427 -18.045684,-2.57619 -10.872967,-0.29351 -14.06508,-0.0825 -14.734688,0.97415 -1.051892,1.65987 -1.177207,35.22284 -0.135413,36.26775 0.4125,0.41374 7.275,0.59389 15.25,0.40035 11.36448,-0.2758 15.191611,-0.72656 17.698307,-2.08453 z M 107.24075,983.75 107.5,933.5 l 31,0 31,0 0,5.5 0,5.5 -24,0.5 -24,0.5 -0.27539,15.75 -0.2754,15.75 21.7754,0.0153 c 11.97646,0.008 22.36536,0.38946 23.08644,0.84675 0.8678,0.55034 1.20589,2.48915 1,5.73469 L 166.5,988.5 144,989 l -22.5,0.5 -0.27477,16.25 -0.27477,16.25 22.94298,0 c 12.61864,0 23.65479,0.2731 24.52477,0.607 1.17182,0.4497 1.58179,2.0048 1.58179,6 l 0,5.393 -31.50925,0 -31.50925,0 0.25925,-50.25 z M 195,1032.9231 c 0,-1.8615 33.10215,-97.29151 34.22709,-98.6731 0.64852,-0.79648 3.71301,-1.25 8.44638,-1.25 l 7.42858,0 1.34628,3.25 c 1.96898,4.75324 32.55167,95.7902 32.55167,96.8981 0,0.5258 -3.14765,0.8101 -7.14743,0.6457 l -7.14743,-0.2938 -4.10257,-12 -4.10257,-12 -19.5,0 -19.5,0 -4.10257,12 -4.10257,12 -7.14743,0.2938 C 197.20785,1033.9969 195,1033.7279 195,1032.9231 z m 56.41328,-35.78278 c 0.60408,-0.97743 -12.90931,-42.03635 -14.28926,-43.4163 C 236.3085,952.9085 222,993.61492 222,996.75052 222,997.69215 225.55805,998 236.44098,998 c 7.94254,0 14.68008,-0.38686 14.9723,-0.85968 z m 57.05093,35.62508 c -0.26666,-0.696 -0.36769,-23.3154 -0.22452,-50.2654 l 0.26031,-49 6.5,0 6.5,0 0.2604,44.25 0.2604,44.25 21.36716,0 c 24.072,0 23.94233,-0.04 23.42315,7.1761 L 366.5,1033.5 l -28.77548,0.2654 c -22.48074,0.2073 -28.88155,-0.012 -29.26031,-1 z M 453.24074,983.76426 453.5,933.5 l 31,0 31,0 0,5.5 0,5.5 -24.25,0.26778 -24.25,0.26778 0,15.98222 0,15.98222 21.30887,0 c 24.61587,0 25.00235,0.11095 24.50907,7.03626 L 512.5,988.5 490,989 l -22.5,0.5 -0.27477,16.25 -0.27477,16.25 23.40232,0 c 26.32366,0 25.98159,-0.096 25.45833,7.1761 L 515.5,1033.5 l -31.25926,0.2643 -31.25925,0.2642 0.25925,-50.26424 z M 673.46931,1032.75 c -0.25736,-0.6875 -0.58074,-20.6 -0.71862,-44.25 l -0.25069,-43 -15.45777,-0.27717 c -10.83033,-0.19419 -15.69035,-0.64323 -16.23469,-1.5 -1.01598,-1.59911 -1.00001,-7.8714 0.0241,-9.48474 0.6272,-0.98801 9.25175,-1.20507 39.73469,-1 L 719.5,933.5 l 0,5.5 0,5.5 -16,0.5 -16,0.5 -0.2604,44.25 -0.2604,44.25 -6.52099,0 c -4.30056,0 -6.68031,-0.4256 -6.9889,-1.25 z m 57.58204,-0.5 c 0.0283,-0.9625 7.56575,-23.575 16.75,-50.25 L 764.5,933.5 l 8.36077,0 8.36078,0 16.38922,48.4623 C 806.62485,1008.6166 814,1031.2496 814,1032.258 c 0,1.626 -0.76361,1.7999 -6.75,1.5377 l -6.75,-0.2957 -3.75241,-10.9004 c -2.06382,-5.9953 -4.25642,-11.5078 -4.87244,-12.25 -1.55675,-1.8758 -37.14155,-1.9675 -38.61884,-0.1 -0.54372,0.6875 -2.66103,6.3125 -4.70513,12.5 l -3.71654,11.25 -6.91732,0 c -5.94082,0 -6.91007,-0.247 -6.86597,-1.75 z M 787,996.22116 c 0,-2.00806 -12.21248,-38.99453 -13.82283,-41.86353 -1.25327,-2.23283 -0.23982,-4.6685 -9.08041,21.82336 -3.79579,11.37455 -6.64539,20.93705 -6.33243,21.25 0.31295,0.31296 7.019,0.56901 14.90234,0.56901 C 785.73931,998 787,997.84354 787,996.22116 z m 67.98469,-5.42547 c -0.008,-23.81263 -0.36493,-43.84597 -0.79223,-44.51852 -0.54434,-0.85677 -5.40436,-1.30581 -16.23469,-1.5 L 822.5,944.5 l 0,-5.5 0,-5.5 39.30025,-0.26165 39.30025,-0.26166 -0.30025,5.76166 L 900.5,944.5 l -15.73962,0.27534 -15.73961,0.27534 -0.26039,44.22466 L 868.5,1033.5 l -6.75,0.2957 -6.75,0.2957 -0.0153,-43.29571 z M 927.24074,983.76426 927.5,933.5 l 31,0 31,0 0,5.5 0,5.5 -24.25,0.26778 -24.25,0.26778 0,15.98222 0,15.98222 21.87756,0 c 24.63656,0 24.45382,-0.0548 23.93355,7.1761 L 986.5,988.5 964,989 l -22.5,0.5 -0.27477,16.25 -0.27477,16.25 23.40232,0 c 26.32366,0 25.98159,-0.096 25.45833,7.1761 L 989.5,1033.5 l -31.25926,0.2643 -31.25925,0.2642 0.25925,-50.26424 z m 372.99996,0.0316 0.2593,-50.2959 30.5,0 30.5,0 0,5.5 0,5.5 -23.75,0.2681 -23.75,0.2681 0,15.9819 0,15.9819 21.9809,0 21.981,0 0.5927,2.36163 c 0.326,1.29889 0.4471,3.88639 0.2691,5.75 L 1358.5,988.5 l -22,0.5 -22,0.5 -0.5,22 -0.5,22 -6.7593,0.2959 -6.7592,0.2959 0.2592,-50.2959 z m 113.5197,5.99955 L 1413.5,945.5 l -16,-0.5 -16,-0.5 0,-5.5 0,-5.5 38.9336,-0.26191 c 30.483,-0.20507 39.1075,0.012 39.7347,1 1.2796,2.01576 0.9552,8.41452 -0.4873,9.6117 -0.7889,0.65468 -7.3203,1.20632 -16.25,1.37244 L 1428.5,945.5 l -0.5,44 -0.5,44 -6.7396,0.2955 -6.7395,0.2954 -0.2605,-44.29545 z m 89.8725,33.45459 c -12.3196,-37.49156 -27.6963,-87.64256 -27.238,-88.83681 0.6595,-1.71869 13.1138,-2.01724 14.1508,-0.33923 0.3651,0.59071 5.6792,18.27599 11.8091,39.30064 6.1298,21.02464 11.5322,38.4289 12.0052,38.676 0.4729,0.2472 5.9658,-14.55592 12.2064,-32.8957 6.2406,-18.33978 11.8712,-33.97728 12.5125,-34.75 1.7972,-2.16549 7.6685,-1.78232 9.1547,0.59745 0.6878,1.10132 6.2041,16.73882 12.2584,34.75 6.0544,18.01119 11.4198,32.74765 11.923,32.74765 0.5033,0 6.6676,-17.25092 13.6984,-38.33533 7.0308,-21.08442 13.3116,-38.97192 13.9574,-39.75 0.7876,-0.949 3.2736,-1.41471 7.5516,-1.41471 5.3978,0 6.3814,0.26885 6.4023,1.75 0.014,0.9625 -7.7059,23.70518 -17.1545,50.53928 l -17.1793,48.78936 -7.4944,-0.2893 -7.4945,-0.2893 -10.101,-29.7383 c -5.5555,-16.35609 -10.4934,-29.61279 -10.973,-29.45936 -0.4796,0.15344 -2.5406,4.98567 -4.58,10.73829 -2.0394,5.75263 -6.7668,19.12187 -10.5054,29.70937 l -6.7974,19.25 -7.2899,0 -7.2899,0 -3.5325,-10.75 z m 121.9949,9.9568 c -0.5178,-0.8378 31.9876,-96.34006 33.6812,-98.95684 0.5258,-0.81244 3.3709,-1.25 8.1276,-1.25 4.6611,0 7.6773,0.45388 8.3067,1.25 0.9329,1.18008 33.2567,97.40304 33.2567,99.00014 0,0.4124 -3.0984,0.7499 -6.8854,0.7499 l -6.8855,0 -4.3793,-12.25 -4.3793,-12.25 -19.3526,0 -19.3526,0 -4.2411,12 -4.2411,12 -6.5555,0.2937 c -3.6055,0.1616 -6.8004,-0.1025 -7.0998,-0.5869 z m 55.8055,-36.09899 c 0.6112,-0.9888 -13.5844,-44.10394 -14.5218,-44.10634 -0.6723,-0.002 -14.9482,41.84132 -14.926,43.74849 0.017,1.4896 28.5342,1.83614 29.4478,0.35785 z m 57.025,35.64219 c -0.2634,-0.6875 -0.3618,-23.3 -0.2186,-50.25004 l 0.2603,-49 23.5,0 c 17.7945,0 24.3498,0.3395 27,1.39837 11.2866,4.5094 18.2787,12.39982 19.8126,22.35812 2.3713,15.39522 -4.7808,28.60762 -18.1945,33.61136 -2.7683,1.03267 -5.1726,2.29556 -5.3429,2.80643 -0.1702,0.51087 5.5482,9.42126 12.7076,19.80086 7.1595,10.3796 13.0172,19.2438 13.0172,19.6984 0,0.4546 -3.7751,0.8265 -8.3891,0.8265 l -8.3891,0 -12.6723,-20 -12.6722,-20.00004 -8.4387,0 -8.4386,0 0,20.00004 0,20 -6.5314,0 c -4.303,0 -6.6948,-0.4265 -7.0103,-1.25 z m 43.6425,-50.90299 c 11.2114,-3.80272 16.0219,-15.3744 10.9938,-26.44598 -3.7564,-8.27124 -10.2904,-10.64534 -28.0946,-10.20807 l -12.5,0.307 -0.2745,17.46487 c -0.151,9.60567 -0.053,18.04317 0.2186,18.75 0.6437,1.67759 24.7832,1.78518 29.6567,0.13218 z m 57.5659,51.48629 c -0.833,-0.8329 -0.8909,-96.58562 -0.06,-98.75155 0.5354,-1.39523 4.2565,-1.58179 31.5499,-1.58179 l 30.9429,0 -0.2999,5.75 -0.2999,5.75 -24,0.5 -24,0.5 0,15.5 0,15.5 22.2881,0.5 c 24.1224,0.54115 24.1644,0.55185 24.1966,6.16821 0.034,6.01152 0.742,5.83042 -22.8417,5.8471 -11.9036,0.008 -22.2176,0.37999 -22.92,0.8257 -0.9661,0.61311 -1.2095,4.56515 -1,16.23473 l 0.277,15.4243 24,0.5 24,0.5 0.2999,5.75 0.2999,5.75 -30.8832,0 c -16.9858,0 -31.1833,-0.3 -31.5499,-0.6667 z m 38.537,-182.8493 c -36.9176,-19.66873 -66.0623,-49.07918 -92.2032,-93.04392 -20.2701,-34.09087 -34.241,-71.7461 -41.9032,-112.94012 -5.7932,-31.14521 -5.4524,-17.21723 -5.8174,-237.7707 -0.2933,-177.20258 -0.1512,-202.84146 1.1267,-203.33182 1.746,-0.67002 9.3738,4.36617 27.5934,18.21828 18.2977,13.91151 30.0044,24.03802 45.8847,39.69108 45.2529,44.60545 70.4827,87.32798 77.7256,131.61573 1.1746,7.18209 1.4002,45.29229 1.3866,234.27076 -0.01,124.13133 -0.285,226.39383 -0.6135,227.25 -0.895,2.33233 -1.9854,2.00478 -13.1797,-3.95929 z M 527.2,848.8 c -0.92475,-0.92475 -1.2,-43.94209 -1.2,-187.53941 0,-123.84278 -0.35368,-189.59626 -1.05452,-196.05 -4.58958,-42.2635 -19.93678,-79.49741 -45.35593,-110.03824 -16.00222,-19.2265 -38.08729,-35.36887 -62.96875,-46.02498 -39.79778,-17.04438 -91.64043,-19.58845 -134.41857,-6.5963 -34.37718,10.44069 -62.966,29.90954 -85.82869,58.44893 -3.30451,4.125 -7.56041,9.10822 -9.45756,11.07382 -1.89714,1.9656 -6.20757,8.9406 -9.57871,15.5 -11.80809,22.97556 -18.29368,44.45367 -22.47394,74.42618 -0.86154,6.17729 -1.34642,60.00954 -1.77441,197 L 152.5,847.5 l -70,0.25984 C 17.57928,848.00082 12.409299,847.89625 11.25,846.31871 10.256281,844.96648 10,780.39848 10,531.39066 10,359.11576 10.273145,217.45177 10.606989,216.58179 10.940833,215.7118 11.700541,215 12.295229,215 c 0.594688,0 5.384043,3.25067 10.643011,7.22371 11.792377,8.90889 32.439106,29.37952 45.413628,45.02629 5.689075,6.8608 10.451653,11.72533 11.4457,11.69072 0.936337,-0.0326 4.852432,-3.89002 8.702432,-8.57203 15.09609,-18.35846 42.70269,-43.15741 63.5,-57.04192 27.42807,-18.31128 57.88875,-32.29635 91.27412,-41.90567 50.99446,-14.67774 112.50091,-17.03113 163.72588,-6.26456 30.99959,6.51556 69.71494,21.38359 86,33.02699 3.025,2.16279 10.675,7.34138 17,11.50798 32.00425,21.0828 61.79079,51.97043 82.02628,85.05849 2.43861,3.9875 4.89281,7.23724 5.45378,7.22164 0.56097,-0.0156 2.55124,-2.6031 4.42284,-5.75 10.34339,-17.39139 26.28606,-37.53783 42.53909,-53.7558 55.83461,-55.71418 133.56101,-84.73653 220.02439,-82.15516 77.0404,2.30004 143.39532,25.96096 200.03362,71.32819 35.2715,28.25244 67.9481,70.56345 87.4298,113.2075 17.2051,37.66064 27.2647,76.27622 31.0404,119.15363 0.6385,7.25051 1.0159,80.46844 1.0212,198.14301 0.01,169.27653 -0.1386,186.69949 -1.5732,187.25 -2.3436,0.89932 -138.7124,0.70715 -140.1361,-0.19748 -0.9483,-0.60256 -1.2881,-42.70824 -1.5351,-190.23469 -0.3164,-188.87644 -0.3241,-189.5017 -2.4858,-202.70806 -4.1678,-25.46214 -10.5695,-45.82712 -20.4357,-65.01026 -22.58638,-43.91526 -57.90591,-74.02494 -103.42026,-88.16516 -43.64266,-13.55874 -95.60847,-11.23982 -136.02604,6.07001 -24.92398,10.67432 -46.17093,26.15793 -62.81097,45.77318 -25.01764,29.49076 -40.92549,68.03908 -45.51371,110.29004 C 669.35383,471.66292 669,537.19837 669,660.52633 c 0,126.02998 -0.33227,186.22601 -1.03518,187.53941 -1.00816,1.88377 -2.84337,1.93426 -70.3,1.93426 -52.53931,0 -69.55459,-0.28977 -70.46482,-1.2 z m 694.8,-315.33936 0,-313.53937 7.75,5.70166 c 16.3268,12.01157 36.5725,31.10943 53.7585,50.71052 4.1224,4.70164 6.4594,6.63141 7.4915,6.18585 0.825,-0.35618 3.975,-3.79097 7,-7.63287 7.0192,-8.91474 31.9442,-33.3797 43,-42.20632 45.8711,-36.62225 99.2675,-58.81977 162,-67.3454 19.4107,-2.638 74.2899,-2.62961 91,0.0139 36.0057,5.69608 72.9582,17.48705 98.5,31.42975 l 5,2.72939 0.2558,81.74611 c 0.1408,44.96036 -0.084,81.7365 -0.5,81.72476 -0.4157,-0.0117 -2.0032,-1.78497 -3.5279,-3.9405 -7.8285,-11.06786 -24.6373,-26.5177 -40.4839,-37.21088 -45.0811,-30.42043 -112.2765,-38.48284 -168.2303,-20.18502 -68.0082,22.23986 -114.3518,82.69981 -123.5294,161.15669 C 1360.2228,473.58334 1360,503.367 1360,661.24387 L 1360,847 l -69,0 -69,0 0,-313.53936 z m 589.8344,-364.02718 c -32.7287,-5.92219 -59.3788,-31.44727 -66.9239,-64.0988 -2.8595,-12.374735 -2.3657,-31.979631 1.079,-42.83466 7.3907,-23.290043 22.3657,-41.001575 43.5105,-51.461442 C 1799.324,6.1788175 1809.1917,3 1814.4534,3 c 1.5218,0 2.3996,-0.4288963 2.0466,-1 -0.3979,-0.643763 3.3426,-1 10.5,-1 7.1574,0 10.8979,0.356237 10.5,1 -0.353,0.5711037 0.5248,1 2.0466,1 9.4015,0 29.3729,8.796847 40.6234,17.893415 14.9211,12.064423 25.3345,28.794174 29.243,46.980861 0.7832,3.644148 1.5196,5.950724 1.6366,5.125724 0.1169,-0.825 0.5871,1.2 1.0447,4.5 0.9534,6.875033 0.064,22.71618 -1.2298,21.916249 -0.4755,-0.293856 -0.8645,0.569874 -0.8645,1.919401 0,3.64617 -3.814,15.33406 -7.2327,22.16435 -17.0452,34.0551 -53.8456,52.64431 -90.9329,45.93346 z"
       id="path3250" />
    <path
       style="fill:#bad336"
       d="m 577.5,1035.3955 c -1.1,-0.2742 -2.9,-0.8963 -4,-1.3824 -1.1,-0.4861 -4.04786,-1.748 -6.55081,-2.8041 -9.20455,-3.884 -16.3664,-12.678 -17.58892,-21.5972 l -0.64781,-4.7263 5.28806,0.3073 5.28806,0.3072 1.28993,4.3845 c 3.52702,11.9885 19.63922,18.2097 35.19602,13.5898 14.65482,-4.352 18.54388,-20.36 6.88817,-28.35291 -2.28948,-1.57001 -11.1377,-5.42656 -19.6627,-8.5701 -17.63786,-6.50387 -22.43996,-9.01047 -26.82077,-13.99994 -8.1637,-9.29794 -6.06248,-25.09584 4.39764,-33.06331 6.64387,-5.06063 13.77272,-6.77265 26.22346,-6.29764 8.6765,0.33101 11.55056,0.8447 15.19967,2.7167 8.02387,4.11625 14.2098,11.50825 15.14579,18.09878 0.33332,2.34705 0.0548,2.51159 -4.72305,2.79039 l -5.07726,0.29627 -1.8801,-4.1693 c -2.94601,-6.53309 -7.85392,-9.19719 -17.91641,-9.72534 -9.6295,-0.50542 -14.2175,0.69416 -19.12079,4.99931 -7.35146,6.45466 -6.41136,17.41105 1.90764,22.23251 2.2903,1.3274 10.91418,4.73067 19.16418,7.56282 23.54907,8.08418 30.40157,13.71438 32.14146,26.40826 1.58731,11.5807 -4.77444,21.4806 -17.61646,27.414 -6.35693,2.9371 -8.78879,3.5099 -16.01022,3.7712 -4.68313,0.1695 -9.41478,0.084 -10.51478,-0.1905 z m 534.5,-0.064 c -4.1324,-0.8608 -16.2885,-6.82 -19.5436,-9.5808 -3.7233,-3.1578 -8.311,-12.0088 -8.6823,-16.7509 l -0.2741,-3.5 5.0307,-0.2947 5.0306,-0.2946 1.2697,4.7474 c 3.7856,14.1536 27.3129,20.4585 41.2628,11.0576 10.4431,-7.0375 10.5242,-19.3078 0.1729,-26.1579 -2.0963,-1.38724 -10.3952,-4.93716 -18.4421,-7.88872 -18.9146,-6.93779 -24.4594,-10.06507 -28.5746,-16.11623 -2.9213,-4.29556 -3.25,-5.50516 -3.25,-11.9601 0,-6.3214 0.3896,-7.83322 3.254,-12.62666 2.7478,-4.59837 4.3201,-5.98817 10.1074,-8.93448 6.2502,-3.182 7.7565,-3.52247 17.1164,-3.86895 11.9504,-0.44237 18.8779,1.13921 25.2691,5.76898 4.4815,3.24633 8.8599,9.85256 9.8668,14.88697 L 1152.25,957 l -5.1047,0 c -4.8918,0 -5.1845,-0.15637 -7.0186,-3.75 -3.8479,-7.53935 -9.3848,-10.25 -20.9373,-10.25 -9.2418,0 -15.2559,2.53158 -18.9394,7.97237 -4.0511,5.98378 -2.4537,14.61657 3.4849,18.83332 1.5208,1.07985 10.1455,4.56992 19.166,7.75572 20.042,7.07825 26.8148,11.22036 30.5268,18.66942 2.8659,5.75107 3.3995,13.27637 1.4117,19.91077 -1.689,5.6374 -6.7916,11.0234 -13.48,14.2285 -3.2227,1.5444 -6.7397,3.2797 -7.8157,3.8562 -2.1422,1.1479 -17.5455,1.9383 -21.5437,1.1054 z m 108.5,-0.3908 c -17.3179,-2.097 -30.7409,-14.9196 -35.0447,-33.4773 -2.0156,-8.69122 -2.0499,-26.83739 -0.067,-35.32558 5.4429,-23.29661 24.0904,-36.46957 47.0276,-33.22125 24.5328,3.47428 38.0803,24.26139 36.2249,55.58323 -1.4971,25.2752 -9.4262,36.8759 -31.141,45.5615 -2.8804,1.1521 -11.1955,1.5822 -17,0.8794 z m 18.9796,-13.3871 c 6.6056,-3.2318 11.7349,-8.9678 14.732,-16.4745 1.9615,-4.9127 2.2313,-7.43123 2.258,-21.0793 0.027,-13.90616 -0.2065,-16.08629 -2.2734,-21.20163 -2.897,-7.16999 -9.8191,-14.94891 -15.9683,-17.94478 -6.9527,-3.38735 -17.8456,-3.21763 -24.8179,0.38669 -12.8222,6.6284 -19.3088,21.83859 -18.1548,42.57051 0.858,15.41381 5.1065,25.20051 13.5973,31.32251 9.0617,6.5336 20.3903,7.4289 30.6271,2.4205 z M 0,984.02514 l 0,-50.18883 22.75,0.36794 c 20.41408,0.33017 23.295125,0.58771 28.059083,2.50823 11.76035,4.741 17.214036,11.92096 17.958708,23.64323 0.751317,11.82687 -2.250257,18.97826 -10.656677,25.39005 -2.401331,1.83156 -6.389344,3.87125 -8.862251,4.53265 -2.472907,0.6614 -4.698592,1.72999 -4.945967,2.37464 -0.247374,0.64465 5.433276,9.70195 12.623666,20.12735 C 64.116953,1023.2059 70,1032.0202 70,1032.3679 70,1032.7155 66.955689,1033 63.234864,1033 l -6.765136,0 -11.433005,-18.117 C 29.355765,990.03451 31.290725,992 22.509207,992 c -4.040097,0 -8.057436,0.27314 -8.92742,0.60699 C 12.212756,993.13234 12,995.88966 12,1013.107 l 0,19.893 -4.4182125,0 c -2.4300169,0 -5.1300169,0.2731 -6,0.607 C 0.15235259,1034.1555 0,1029.38 0,984.02514 z m 46.18083,-1.7116 c 8.832585,-4.0379 13.594132,-14.43711 10.834745,-23.66307 -1.874705,-6.26804 -4.786408,-9.6562 -10.576218,-12.30686 -4.874939,-2.23182 -6.24565,-2.38027 -19.590523,-2.12167 L 12.5,944.5 12.227492,963.37042 c -0.198325,13.73343 0.05983,19.27085 0.948307,20.3414 0.993621,1.19724 3.742782,1.40313 14.772508,1.1063 11.204321,-0.30152 14.362488,-0.73536 18.232523,-2.50458 z m 62.2831,49.45136 c -0.26662,-0.6957 -0.36757,-22.8649 -0.22434,-49.2649 l 0.26041,-48 29.8054,-0.26497 29.8054,-0.26496 -0.3054,4.76496 -0.3054,4.76497 -23.45268,0.26893 c -17.23179,0.19759 -23.66011,0.59547 -24.23469,1.5 -0.4301,0.67709 -0.7889,8.03847 -0.79732,16.35863 -0.0115,11.37326 0.31436,15.40116 1.31308,16.23001 0.85534,0.70988 9.1348,1.19861 23.25,1.37245 L 165.5,979.5 l 0,4 0,4 -21.92161,0.26998 c -14.1152,0.17384 -22.39466,0.66257 -23.25,1.37245 -1.83411,1.52217 -1.90309,30.70207 -0.0784,33.15707 1.09921,1.4789 4.08491,1.713 24.75,1.9411 l 23.5,0.2594 0,4 0,4 -29.77566,0.2649 c -23.2813,0.2072 -29.88139,-0.011 -30.26041,-1 z m 88.52448,-0.015 c -0.0169,-1.8225 32.16006,-95.01271 33.3343,-96.5421 0.67815,-0.88326 3.07811,-1.19968 7.58468,-1 L 244.5,934.5 l 16.17403,48 c 8.89572,26.4 16.20822,48.5625 16.25,49.25 0.052,0.8555 -1.63376,1.25 -5.34191,1.25 l -5.41788,0 -2.73652,-8.25 c -1.50508,-4.5375 -3.55506,-10.1719 -4.55549,-12.5208 l -1.81898,-4.2708 -20.27401,0.2708 -20.274,0.2708 -4.39587,12.25 -4.39586,12.25 -5.35676,0 c -3.61255,0 -5.36052,-0.407 -5.36834,-1.25 z m 56.02259,-35 c 0.0121,-2.48465 -13.77831,-43.51203 -15.29013,-45.48899 -0.52112,-0.68144 -1.3105,-1.01463 -1.75419,-0.74042 -1.3196,0.81556 -16.17189,46.33835 -15.48238,47.45401 0.39007,0.63115 6.76286,1.0254 16.57472,1.0254 15.86146,0 15.94103,-0.0112 15.95198,-2.25 z m 56.65567,35.5833 c -0.83297,-0.8329 -0.8908,-94.58566 -0.0597,-96.75151 0.43906,-1.14417 1.9607,-1.58179 5.5,-1.58179 2.69115,0 4.99378,0.1125 5.11694,0.25 0.12317,0.1375 0.46067,20.275 0.75,44.75 l 0.52607,44.5 21.75,0.2695 21.75,0.2695 0,4.4805 0,4.4805 -27.33333,0 c -15.03334,0 -27.63334,-0.3 -28,-0.6667 z M 454.4582,1031.75 c -0.26346,-0.6875 -0.36184,-22.85 -0.21861,-49.25 l 0.26041,-48 29.5,0 29.5,0 0,4.5 0,4.5 -24,0.5 -24,0.5 -0.27598,15.86623 c -0.18875,10.85079 0.087,16.30365 0.87244,17.25 0.91372,1.10096 5.60592,1.38377 22.9586,1.38377 21.18512,0 21.82901,0.0594 22.46785,2.07217 0.36172,1.1397 0.38347,3.1647 0.0483,4.5 L 510.9619,988 l -22.37396,0 c -19.47964,0 -22.45248,0.20462 -22.98095,1.58179 -1.18715,3.09365 -0.67195,31.95321 0.59301,33.21821 0.86466,0.8647 7.71111,1.2 24.5,1.2 l 23.3,0 0,4.5 0,4.5 -29.53138,0 c -22.70296,0 -29.64215,-0.289 -30.01042,-1.25 z m 220.25339,0.6283 C 674.32021,1031.9869 674,1011.9531 674,987.85873 l 0,-43.80794 -15.75,-0.2754 -15.75,-0.27539 0,-4.5 0,-4.5 37.5,0 37.5,0 0,4.5 0,4.5 -15.73962,0.27534 -15.73961,0.27534 -0.26039,44.22466 L 685.5,1032.5 l -5.03841,0.2949 c -2.77113,0.1622 -5.35863,-0.025 -5.75,-0.4166 z m 57.69399,-1.0759 c 0.31549,-0.9913 7.93472,-23.1774 16.93161,-49.3024 l 16.358,-47.5 6.49502,-0.2921 c 4.58737,-0.20631 6.83049,0.11212 7.63722,1.08416 C 780.7153,936.36188 813,1031.1945 813,1032.7327 c 0,0.2019 -2.5875,0.2322 -5.75,0.067 l -5.75,-0.2999 -4.10523,-12 -4.10523,-12 -20.55442,-0.27 -20.55442,-0.27 -1.58562,4.27 c -0.8721,2.3485 -2.82526,7.87 -4.34035,12.27 l -2.75473,8 -5.83402,0.3024 c -5.23625,0.2714 -5.77525,0.1177 -5.2604,-1.5 z M 789,997.72501 c 0,-1.93003 -14.84825,-45.97326 -15.82984,-46.95485 -0.47323,-0.47323 -1.31186,-0.27793 -1.87838,0.43746 C 769.97153,952.87478 756,994.94246 756,997.25052 756,998.84581 757.45424,999 772.5,999 c 12.70584,0 16.5,-0.29318 16.5,-1.27499 z M 855.7604,988.75 855.5,944.5 l -14,-0.24324 c -18.78097,-0.32632 -18.68613,-0.29762 -18.30588,-5.53984 L 823.5,934.5 l 38,0 38,0 0,4.5 0,4.5 -16,0.5 -16,0.5 -0.2604,44.25 -0.2604,44.25 -5.4792,0 -5.4792,0 -0.2604,-44.25 z m 72.6978,43 c -0.26346,-0.6875 -0.36184,-22.85 -0.21861,-49.25 l 0.26041,-48 29.5,0 29.5,0 0,4.5 0,4.5 -23.45268,0.26893 c -17.23179,0.19759 -23.66011,0.59547 -24.23469,1.5 -0.4301,0.67709 -0.7889,8.03847 -0.79732,16.35863 -0.0115,11.37326 0.31436,15.40116 1.31308,16.23001 0.85527,0.70982 9.13126,1.19862 23.23691,1.37245 20.31184,0.2503 21.93415,0.40328 22.26017,2.09907 0.1934,1.00601 0.0782,2.91851 -0.25597,4.25 L 984.9619,988 l -22.37396,0 c -19.47964,0 -22.45248,0.20462 -22.98095,1.58179 -1.18715,3.09365 -0.67195,31.95321 0.59301,33.21821 0.86466,0.8647 7.71111,1.2 24.5,1.2 l 23.3,0 0,4.5 0,4.5 -29.53138,0 c -22.70296,0 -29.64215,-0.289 -30.01042,-1.25 z m 372.7824,-48 0.2594,-49.25 28.9313,-0.26563 c 22.4796,-0.2064 29.1105,0.0166 29.7347,1 1.2583,1.98225 0.9708,6.40724 -0.4953,7.62397 -0.8616,0.71503 -9.3946,1.19797 -24.25,1.37245 L 1312.5,944.5 l 0,16.5 0,16.5 22,0.5 22,0.5 0.3048,4.75 0.3048,4.75 -21.9478,0 c -19.0911,0 -22.0268,0.20589 -22.5548,1.58179 -0.3339,0.86998 -0.607,10.99501 -0.607,22.50001 l 0,20.9182 -5.5094,0 -5.5094,0 0.2594,-49.25 z m 114.2287,48 c -0.2574,-0.6875 -0.5807,-20.6 -0.7186,-44.25 l -0.2507,-43 -15.1487,-0.2755 c -17.0548,-0.31016 -18.0466,-0.70449 -16.9171,-6.72552 l 0.6609,-3.52294 37.7025,0.26198 37.7024,0.26198 0,4.5 0,4.5 -15.4578,0.27717 c -10.8303,0.19419 -15.6903,0.64323 -16.2347,1.5 -0.4273,0.67255 -0.7838,20.68533 -0.7922,44.47283 L 1426,1033 l -5.0314,0 c -3.1089,0 -5.2102,-0.4776 -5.4993,-1.25 z m 88.4971,-12 c -2.2934,-7.2875 -9.074,-28.74466 -15.0681,-47.68259 C 1482.9042,953.12949 1478,936.79453 1478,935.76751 c 0,-1.64132 0.6958,-1.83102 5.7486,-1.56741 l 5.7486,0.2999 11.6487,39.84729 c 6.4068,21.91602 12.0941,40.29271 12.6385,40.83711 0.6531,0.6531 1.2821,0.535 1.8489,-0.3473 0.4724,-0.7354 6.0357,-16.6371 12.3628,-35.3371 l 11.5039,-34 3.8859,0 3.8859,0 12.0079,35.2854 c 7.1177,20.9155 12.4584,35.1423 13.1141,34.934 0.6084,-0.1933 7.1812,-18.09674 14.6062,-39.78543 7.425,-21.68868 13.8641,-39.99647 14.309,-40.68397 0.9122,-1.40942 10.2696,-1.74092 11.1024,-0.39332 0.4582,0.74128 -28.5557,84.37282 -32.7709,94.46142 -1.5295,3.6605 -1.5732,3.6819 -7.5176,3.6819 l -5.9792,0 -1.9258,-5.25 c -1.0591,-2.8875 -5.6078,-16.275 -10.1081,-29.75 -4.5003,-13.475 -8.6246,-25.175 -9.1651,-26 -0.8636,-1.31824 -1.1368,-1.29951 -2.2542,0.15459 -0.6993,0.91003 -5.9298,14.97253 -11.6234,31.25001 l -10.3519,29.5954 -6.2895,0 -6.2896,0 -4.1697,-13.25 z M 1627,1032.2111 c 0,-1.0848 30.4051,-89.85159 32.467,-94.78635 l 1.4697,-3.51757 6.7817,0.29641 6.7816,0.29641 16.1951,47.5 c 8.9073,26.125 16.2198,48.2875 16.25,49.25 0.046,1.4581 -0.8488,1.75 -5.3624,1.75 l -5.4173,0 -3.7166,-11.25 c -2.0441,-6.1875 -4.169,-11.8216 -4.7219,-12.5203 -0.7664,-0.9682 -5.7868,-1.206 -21.1162,-1 l -20.1107,0.2703 -4.1016,12 -4.1015,12 -5.6485,0.2999 c -3.1066,0.165 -5.6484,-0.1 -5.6484,-0.5888 z m 56.411,-34.06708 C 1684.3396,996.64144 1668.4462,950.5 1667,950.5 c -1.4462,0 -17.3396,46.14144 -16.411,47.64402 0.291,0.47079 7.6759,0.85598 16.411,0.85598 8.7351,0 16.12,-0.38519 16.411,-0.85598 z m 56.8295,-14.34143 0.2595,-49.30259 22.0559,0 22.0559,0 7.4921,3.7048 c 8.2344,4.07185 12.7701,9.07501 14.7753,16.2983 2.5984,9.35952 0.3308,20.55499 -5.5563,27.43275 -3.2325,3.77649 -12.4452,9.06415 -15.7924,9.06415 -3.934,0 -2.171,3.72793 10.3754,21.9388 7.2017,10.4533 13.0941,19.2434 13.0941,19.5336 0,0.2902 -3.0896,0.5276 -6.8658,0.5276 l -6.8657,0 -11.8843,-18.7485 c -6.5363,-10.3117 -12.6717,-19.53674 -13.6342,-20.50004 -1.349,-1.35013 -3.4113,-1.74795 -9,-1.73615 -3.9875,0.008 -7.8025,0.36628 -8.4777,0.79523 -0.8854,0.5625 -1.3036,6.20336 -1.5,20.23466 l -0.2723,19.4548 -5.2595,0.3026 -5.2594,0.3026 0.2594,-49.30261 z m 41.6331,-0.35769 c 10.7425,-3.19018 16.8306,-13.60921 14.1602,-24.23349 -2.7812,-11.0651 -9.2381,-14.97415 -26.239,-15.88526 -6.297,-0.33746 -13.1019,-0.30351 -15.122,0.0755 l -3.6728,0.68903 0,19.87135 c 0,14.96141 0.3089,19.99598 1.25,20.37574 3.0864,1.24538 24.6076,0.59675 29.6236,-0.89282 z m 59.367,0.3051 0.2594,-49.25 29.5,0 29.5,0 0,4.5 0,4.5 -24,0.5 -24,0.5 0,17 0,17 22.8066,0.26892 22.8065,0.26892 -0.3065,4.23108 -0.3066,4.23108 -22.5,0.5 -22.5,0.5 -0.275,16.9255 c -0.2091,12.8713 0.031,17.1194 1,17.7347 0.7013,0.4451 11.7375,0.8161 24.525,0.8245 l 23.25,0.015 0,4.5 0,4.5 -30.0094,0 -30.0094,0 0.2594,-49.25 z m 36.8552,-134.32324 c -27.8355,-14.8295 -50.7377,-35.01354 -72.1155,-63.55636 -37.7201,-50.36251 -60.1131,-110.95027 -65.9252,-178.3704 -1.498,-17.37753 -1.4484,-403.5 0.052,-403.5 2.4482,0 29.532,20.01709 47.8822,35.38874 12.004,10.0556 34.7074,32.32464 44.9717,44.11126 26.631,30.58104 44.565,61.63633 52.5766,91.04413 5.9052,21.67604 5.5592,5.72535 5.4742,252.35499 -0.043,124.51952 -0.3146,226.78202 -0.6039,227.25 -0.8223,1.33063 -1.2795,1.15529 -12.312,-4.72236 z M 527.47671,847.75 c -0.25328,-0.6875 -0.60628,-87.425 -0.78444,-192.75 -0.31927,-188.75093 -0.35364,-191.65791 -2.39406,-202.5 -4.67752,-24.8547 -9.70975,-40.62177 -18.9233,-59.29082 -25.17607,-51.01328 -68.49755,-84.52087 -123.72508,-95.69684 -25.49904,-5.16005 -54.93831,-5.33178 -80.14438,-0.46751 -43.23123,8.34277 -78.23484,29.2053 -105.15479,62.67338 -4.07805,5.07002 -8.01752,9.57002 -8.75438,10 -2.2128,1.29125 -8.62465,12.04898 -14.30875,24.00709 -9.80335,20.62409 -16.5893,45.14046 -19.23301,69.48529 C 153.35386,469.66264 153,535.15427 153,658.3788 153,760.38049 152.72686,844.54823 152.39301,845.41821 151.84754,846.83969 144.71323,847 82,847 19.286765,847 12.15246,846.83969 11.606989,845.41821 10.4628,842.4365 10.91428,217.17101 12.061134,216.46222 c 1.770751,-1.09439 19.704728,13.29617 32.444409,26.03399 6.603049,6.60208 16.747555,17.62879 22.543346,24.50379 5.836269,6.92301 11.418954,12.62902 12.512774,12.78919 1.411379,0.20667 3.681945,-1.78786 7.956654,-6.98934 26.164283,-31.83676 60.920263,-59.38886 98.731223,-78.26718 42.76432,-21.35145 83.5871,-31.77352 135.71431,-34.64791 50.91497,-2.80755 96.53292,4.98496 141.80581,24.22343 12.52395,5.32198 24.56948,11.37381 26.5193,13.32362 0.84225,0.84226 5.85356,4.22695 11.13624,7.52154 19.111,11.91875 35.51999,25.18648 52.20446,42.21071 13.32,13.59124 22.54212,25.12408 34.04566,42.57624 5.18812,7.87095 9.83598,14.06173 10.32859,13.75728 0.49261,-0.30444 3.17313,-4.32403 5.95672,-8.93241 2.78359,-4.60837 9.04329,-13.70828 13.91043,-20.22202 26.91888,-36.02575 60.06081,-63.5828 99.62894,-82.84006 35.1117,-17.08838 67.38558,-25.73121 110.45649,-29.57987 14.96344,-1.33708 51.74994,-0.75883 66.54351,1.04601 78.82832,9.61717 142.5133,39.85004 194.1886,92.18627 24.6177,24.93249 43.032,50.6586 58.2252,81.3445 22.4079,45.25735 33.4881,89.80878 36.0626,145 1.545,33.12116 1.3404,363.68661 -0.2264,365.81874 -1.1592,1.57742 -6.2994,1.68212 -70.75,1.44113 l -69.5,-0.25987 -0.5726,-189 c -0.5887,-194.30423 -0.5316,-191.62804 -4.5487,-213.3765 C 1025.5125,381.87925 984.43049,329.37071 928.64977,307.15287 905.20136,297.81322 882.64049,293.72879 854.5,293.72879 c -33.43872,0 -60.00282,5.9362 -87,19.44163 -45.47925,22.75115 -79.16148,66.31973 -92.53313,119.69331 -6.83009,27.26261 -6.36099,11.67022 -6.66802,221.63627 -0.15281,104.5 -0.51614,191.0125 -0.8074,192.25 l -0.52955,2.25 -69.51234,0 c -54.69759,0 -69.61048,-0.2664 -69.97285,-1.25 z M 1222,533.46064 l 0,-313.53937 7.75,5.70166 c 16.3268,12.01157 36.5725,31.10943 53.7585,50.71052 4.1224,4.70164 6.4594,6.63141 7.4915,6.18585 0.825,-0.35618 3.975,-3.79097 7,-7.63287 7.0192,-8.91474 31.9442,-33.3797 43,-42.20632 45.8711,-36.62225 99.2675,-58.81977 162,-67.3454 19.4107,-2.638 74.2899,-2.62961 91,0.0139 36.0057,5.69608 72.9582,17.48705 98.5,31.42975 l 5,2.72939 0.2558,81.74611 c 0.1408,44.96036 -0.084,81.7365 -0.5,81.72476 -0.4157,-0.0117 -2.0032,-1.78497 -3.5279,-3.9405 -7.8285,-11.06786 -24.6373,-26.5177 -40.4839,-37.21088 -45.0811,-30.42043 -112.2765,-38.48284 -168.2303,-20.18502 -68.0082,22.23986 -114.3518,82.69981 -123.5294,161.15669 C 1360.2228,473.58334 1360,503.367 1360,661.24387 L 1360,847 l -69,0 -69,0 0,-313.53936 z m 589.8344,-364.02718 c -32.7287,-5.92219 -59.3788,-31.44727 -66.9239,-64.0988 -2.8595,-12.374735 -2.3657,-31.979631 1.079,-42.83466 7.3907,-23.290043 22.3657,-41.001575 43.5105,-51.461442 C 1799.324,6.1788175 1809.1917,3 1814.4534,3 c 1.5218,0 2.3996,-0.4288963 2.0466,-1 -0.3979,-0.643763 3.3426,-1 10.5,-1 7.1574,0 10.8979,0.356237 10.5,1 -0.353,0.5711037 0.5248,1 2.0466,1 9.4015,0 29.3729,8.796847 40.6234,17.893415 14.9211,12.064423 25.3345,28.794174 29.243,46.980861 0.7832,3.644148 1.5196,5.950724 1.6366,5.125724 0.1169,-0.825 0.5871,1.2 1.0447,4.5 0.9534,6.875033 0.064,22.71618 -1.2298,21.916249 -0.4755,-0.293856 -0.8645,0.569874 -0.8645,1.919401 0,3.64617 -3.814,15.33406 -7.2327,22.16435 -17.0452,34.0551 -53.8456,52.64431 -90.9329,45.93346 z"
       id="path3248" />
    <path
       style="fill:#6b93a1"
       d="m 577.5,1035.3955 c -1.1,-0.2742 -2.9,-0.8963 -4,-1.3824 -1.1,-0.4861 -4.04786,-1.748 -6.55081,-2.8041 -9.20455,-3.884 -16.3664,-12.678 -17.58892,-21.5972 l -0.64781,-4.7263 5.28806,0.3073 5.28806,0.3072 1.28993,4.3845 c 3.52702,11.9885 19.63922,18.2097 35.19602,13.5898 14.65482,-4.352 18.54388,-20.36 6.88817,-28.35291 -2.28948,-1.57001 -11.1377,-5.42656 -19.6627,-8.5701 -17.63786,-6.50387 -22.43996,-9.01047 -26.82077,-13.99994 -8.1637,-9.29794 -6.06248,-25.09584 4.39764,-33.06331 6.64387,-5.06063 13.77272,-6.77265 26.22346,-6.29764 8.6765,0.33101 11.55056,0.8447 15.19967,2.7167 8.02387,4.11625 14.2098,11.50825 15.14579,18.09878 0.33332,2.34705 0.0548,2.51159 -4.72305,2.79039 l -5.07726,0.29627 -1.8801,-4.1693 c -2.94601,-6.53309 -7.85392,-9.19719 -17.91641,-9.72534 -9.6295,-0.50542 -14.2175,0.69416 -19.12079,4.99931 -7.35146,6.45466 -6.41136,17.41105 1.90764,22.23251 2.2903,1.3274 10.91418,4.73067 19.16418,7.56282 23.54907,8.08418 30.40157,13.71438 32.14146,26.40826 1.58731,11.5807 -4.77444,21.4806 -17.61646,27.414 -6.35693,2.9371 -8.78879,3.5099 -16.01022,3.7712 -4.68313,0.1695 -9.41478,0.084 -10.51478,-0.1905 z m 534.5,-0.064 c -4.1324,-0.8608 -16.2885,-6.82 -19.5436,-9.5808 -3.7233,-3.1578 -8.311,-12.0088 -8.6823,-16.7509 l -0.2741,-3.5 5.0307,-0.2947 5.0306,-0.2946 1.2697,4.7474 c 3.7856,14.1536 27.3129,20.4585 41.2628,11.0576 10.4431,-7.0375 10.5242,-19.3078 0.1729,-26.1579 -2.0963,-1.38724 -10.3952,-4.93716 -18.4421,-7.88872 -18.9146,-6.93779 -24.4594,-10.06507 -28.5746,-16.11623 -2.9213,-4.29556 -3.25,-5.50516 -3.25,-11.9601 0,-6.3214 0.3896,-7.83322 3.254,-12.62666 2.7478,-4.59837 4.3201,-5.98817 10.1074,-8.93448 6.2502,-3.182 7.7565,-3.52247 17.1164,-3.86895 11.9504,-0.44237 18.8779,1.13921 25.2691,5.76898 4.4815,3.24633 8.8599,9.85256 9.8668,14.88697 L 1152.25,957 l -5.1047,0 c -4.8918,0 -5.1845,-0.15637 -7.0186,-3.75 -3.8479,-7.53935 -9.3848,-10.25 -20.9373,-10.25 -9.2418,0 -15.2559,2.53158 -18.9394,7.97237 -4.0511,5.98378 -2.4537,14.61657 3.4849,18.83332 1.5208,1.07985 10.1455,4.56992 19.166,7.75572 20.042,7.07825 26.8148,11.22036 30.5268,18.66942 2.8659,5.75107 3.3995,13.27637 1.4117,19.91077 -1.689,5.6374 -6.7916,11.0234 -13.48,14.2285 -3.2227,1.5444 -6.7397,3.2797 -7.8157,3.8562 -2.1422,1.1479 -17.5455,1.9383 -21.5437,1.1054 z m 108.5,-0.3908 c -17.3179,-2.097 -30.7409,-14.9196 -35.0447,-33.4773 -2.0156,-8.69122 -2.0499,-26.83739 -0.067,-35.32558 5.4429,-23.29661 24.0904,-36.46957 47.0276,-33.22125 24.5328,3.47428 38.0803,24.26139 36.2249,55.58323 -1.4971,25.2752 -9.4262,36.8759 -31.141,45.5615 -2.8804,1.1521 -11.1955,1.5822 -17,0.8794 z m 18.9796,-13.3871 c 6.6056,-3.2318 11.7349,-8.9678 14.732,-16.4745 1.9615,-4.9127 2.2313,-7.43123 2.258,-21.0793 0.027,-13.90616 -0.2065,-16.08629 -2.2734,-21.20163 -2.897,-7.16999 -9.8191,-14.94891 -15.9683,-17.94478 -6.9527,-3.38735 -17.8456,-3.21763 -24.8179,0.38669 -12.8222,6.6284 -19.3088,21.83859 -18.1548,42.57051 0.858,15.41381 5.1065,25.20051 13.5973,31.32251 9.0617,6.5336 20.3903,7.4289 30.6271,2.4205 z M 0,984.02514 l 0,-50.18883 22.75,0.36794 c 20.41408,0.33017 23.295125,0.58771 28.059083,2.50823 11.76035,4.741 17.214036,11.92096 17.958708,23.64323 0.751317,11.82687 -2.250257,18.97826 -10.656677,25.39005 -2.401331,1.83156 -6.389344,3.87125 -8.862251,4.53265 -2.472907,0.6614 -4.698592,1.72999 -4.945967,2.37464 -0.247374,0.64465 5.433276,9.70195 12.623666,20.12735 C 64.116953,1023.2059 70,1032.0202 70,1032.3679 70,1032.7155 66.955689,1033 63.234864,1033 l -6.765136,0 -11.433005,-18.117 C 29.355765,990.03451 31.290725,992 22.509207,992 c -4.040097,0 -8.057436,0.27314 -8.92742,0.60699 C 12.212756,993.13234 12,995.88966 12,1013.107 l 0,19.893 -4.4182125,0 c -2.4300169,0 -5.1300169,0.2731 -6,0.607 C 0.15235259,1034.1555 0,1029.38 0,984.02514 z m 46.18083,-1.7116 c 8.832585,-4.0379 13.594132,-14.43711 10.834745,-23.66307 -1.874705,-6.26804 -4.786408,-9.6562 -10.576218,-12.30686 -4.874939,-2.23182 -6.24565,-2.38027 -19.590523,-2.12167 L 12.5,944.5 12.227492,963.37042 c -0.198325,13.73343 0.05983,19.27085 0.948307,20.3414 0.993621,1.19724 3.742782,1.40313 14.772508,1.1063 11.204321,-0.30152 14.362488,-0.73536 18.232523,-2.50458 z m 62.2831,49.45136 c -0.26662,-0.6957 -0.36757,-22.8649 -0.22434,-49.2649 l 0.26041,-48 29.8054,-0.26497 29.8054,-0.26496 -0.3054,4.76496 -0.3054,4.76497 -23.45268,0.26893 c -17.23179,0.19759 -23.66011,0.59547 -24.23469,1.5 -0.4301,0.67709 -0.7889,8.03847 -0.79732,16.35863 -0.0115,11.37326 0.31436,15.40116 1.31308,16.23001 0.85534,0.70988 9.1348,1.19861 23.25,1.37245 L 165.5,979.5 l 0,4 0,4 -21.92161,0.26998 c -14.1152,0.17384 -22.39466,0.66257 -23.25,1.37245 -1.83411,1.52217 -1.90309,30.70207 -0.0784,33.15707 1.09921,1.4789 4.08491,1.713 24.75,1.9411 l 23.5,0.2594 0,4 0,4 -29.77566,0.2649 c -23.2813,0.2072 -29.88139,-0.011 -30.26041,-1 z m 88.52448,-0.015 c -0.0169,-1.8225 32.16006,-95.01271 33.3343,-96.5421 0.67815,-0.88326 3.07811,-1.19968 7.58468,-1 L 244.5,934.5 l 16.17403,48 c 8.89572,26.4 16.20822,48.5625 16.25,49.25 0.052,0.8555 -1.63376,1.25 -5.34191,1.25 l -5.41788,0 -2.73652,-8.25 c -1.50508,-4.5375 -3.55506,-10.1719 -4.55549,-12.5208 l -1.81898,-4.2708 -20.27401,0.2708 -20.274,0.2708 -4.39587,12.25 -4.39586,12.25 -5.35676,0 c -3.61255,0 -5.36052,-0.407 -5.36834,-1.25 z m 56.02259,-35 c 0.0121,-2.48465 -13.77831,-43.51203 -15.29013,-45.48899 -0.52112,-0.68144 -1.3105,-1.01463 -1.75419,-0.74042 -1.3196,0.81556 -16.17189,46.33835 -15.48238,47.45401 0.39007,0.63115 6.76286,1.0254 16.57472,1.0254 15.86146,0 15.94103,-0.0112 15.95198,-2.25 z m 56.65567,35.5833 c -0.83297,-0.8329 -0.8908,-94.58566 -0.0597,-96.75151 0.43906,-1.14417 1.9607,-1.58179 5.5,-1.58179 2.69115,0 4.99378,0.1125 5.11694,0.25 0.12317,0.1375 0.46067,20.275 0.75,44.75 l 0.52607,44.5 21.75,0.2695 21.75,0.2695 0,4.4805 0,4.4805 -27.33333,0 c -15.03334,0 -27.63334,-0.3 -28,-0.6667 z M 454.4582,1031.75 c -0.26346,-0.6875 -0.36184,-22.85 -0.21861,-49.25 l 0.26041,-48 29.5,0 29.5,0 0,4.5 0,4.5 -24,0.5 -24,0.5 -0.27598,15.86623 c -0.18875,10.85079 0.087,16.30365 0.87244,17.25 0.91372,1.10096 5.60592,1.38377 22.9586,1.38377 21.18512,0 21.82901,0.0594 22.46785,2.07217 0.36172,1.1397 0.38347,3.1647 0.0483,4.5 L 510.9619,988 l -22.37396,0 c -19.47964,0 -22.45248,0.20462 -22.98095,1.58179 -1.18715,3.09365 -0.67195,31.95321 0.59301,33.21821 0.86466,0.8647 7.71111,1.2 24.5,1.2 l 23.3,0 0,4.5 0,4.5 -29.53138,0 c -22.70296,0 -29.64215,-0.289 -30.01042,-1.25 z m 220.25339,0.6283 C 674.32021,1031.9869 674,1011.9531 674,987.85873 l 0,-43.80794 -15.75,-0.2754 -15.75,-0.27539 0,-4.5 0,-4.5 37.5,0 37.5,0 0,4.5 0,4.5 -15.73962,0.27534 -15.73961,0.27534 -0.26039,44.22466 L 685.5,1032.5 l -5.03841,0.2949 c -2.77113,0.1622 -5.35863,-0.025 -5.75,-0.4166 z m 57.69399,-1.0759 c 0.31549,-0.9913 7.93472,-23.1774 16.93161,-49.3024 l 16.358,-47.5 6.49502,-0.2921 c 4.58737,-0.20631 6.83049,0.11212 7.63722,1.08416 C 780.7153,936.36188 813,1031.1945 813,1032.7327 c 0,0.2019 -2.5875,0.2322 -5.75,0.067 l -5.75,-0.2999 -4.10523,-12 -4.10523,-12 -20.55442,-0.27 -20.55442,-0.27 -1.58562,4.27 c -0.8721,2.3485 -2.82526,7.87 -4.34035,12.27 l -2.75473,8 -5.83402,0.3024 c -5.23625,0.2714 -5.77525,0.1177 -5.2604,-1.5 z M 789,997.72501 c 0,-1.93003 -14.84825,-45.97326 -15.82984,-46.95485 -0.47323,-0.47323 -1.31186,-0.27793 -1.87838,0.43746 C 769.97153,952.87478 756,994.94246 756,997.25052 756,998.84581 757.45424,999 772.5,999 c 12.70584,0 16.5,-0.29318 16.5,-1.27499 z M 855.7604,988.75 855.5,944.5 l -14,-0.24324 c -18.78097,-0.32632 -18.68613,-0.29762 -18.30588,-5.53984 L 823.5,934.5 l 38,0 38,0 0,4.5 0,4.5 -16,0.5 -16,0.5 -0.2604,44.25 -0.2604,44.25 -5.4792,0 -5.4792,0 -0.2604,-44.25 z m 72.6978,43 c -0.26346,-0.6875 -0.36184,-22.85 -0.21861,-49.25 l 0.26041,-48 29.5,0 29.5,0 0,4.5 0,4.5 -23.45268,0.26893 c -17.23179,0.19759 -23.66011,0.59547 -24.23469,1.5 -0.4301,0.67709 -0.7889,8.03847 -0.79732,16.35863 -0.0115,11.37326 0.31436,15.40116 1.31308,16.23001 0.85527,0.70982 9.13126,1.19862 23.23691,1.37245 20.31184,0.2503 21.93415,0.40328 22.26017,2.09907 0.1934,1.00601 0.0782,2.91851 -0.25597,4.25 L 984.9619,988 l -22.37396,0 c -19.47964,0 -22.45248,0.20462 -22.98095,1.58179 -1.18715,3.09365 -0.67195,31.95321 0.59301,33.21821 0.86466,0.8647 7.71111,1.2 24.5,1.2 l 23.3,0 0,4.5 0,4.5 -29.53138,0 c -22.70296,0 -29.64215,-0.289 -30.01042,-1.25 z m 372.7824,-48 0.2594,-49.25 28.9313,-0.26563 c 22.4796,-0.2064 29.1105,0.0166 29.7347,1 1.2583,1.98225 0.9708,6.40724 -0.4953,7.62397 -0.8616,0.71503 -9.3946,1.19797 -24.25,1.37245 L 1312.5,944.5 l 0,16.5 0,16.5 22,0.5 22,0.5 0.3048,4.75 0.3048,4.75 -21.9478,0 c -19.0911,0 -22.0268,0.20589 -22.5548,1.58179 -0.3339,0.86998 -0.607,10.99501 -0.607,22.50001 l 0,20.9182 -5.5094,0 -5.5094,0 0.2594,-49.25 z m 114.2287,48 c -0.2574,-0.6875 -0.5807,-20.6 -0.7186,-44.25 l -0.2507,-43 -15.1487,-0.2755 c -17.0548,-0.31016 -18.0466,-0.70449 -16.9171,-6.72552 l 0.6609,-3.52294 37.7025,0.26198 37.7024,0.26198 0,4.5 0,4.5 -15.4578,0.27717 c -10.8303,0.19419 -15.6903,0.64323 -16.2347,1.5 -0.4273,0.67255 -0.7838,20.68533 -0.7922,44.47283 L 1426,1033 l -5.0314,0 c -3.1089,0 -5.2102,-0.4776 -5.4993,-1.25 z m 88.4971,-12 c -2.2934,-7.2875 -9.074,-28.74466 -15.0681,-47.68259 C 1482.9042,953.12949 1478,936.79453 1478,935.76751 c 0,-1.64132 0.6958,-1.83102 5.7486,-1.56741 l 5.7486,0.2999 11.6487,39.84729 c 6.4068,21.91602 12.0941,40.29271 12.6385,40.83711 0.6531,0.6531 1.2821,0.535 1.8489,-0.3473 0.4724,-0.7354 6.0357,-16.6371 12.3628,-35.3371 l 11.5039,-34 3.8859,0 3.8859,0 12.0079,35.2854 c 7.1177,20.9155 12.4584,35.1423 13.1141,34.934 0.6084,-0.1933 7.1812,-18.09674 14.6062,-39.78543 7.425,-21.68868 13.8641,-39.99647 14.309,-40.68397 0.9122,-1.40942 10.2696,-1.74092 11.1024,-0.39332 0.4582,0.74128 -28.5557,84.37282 -32.7709,94.46142 -1.5295,3.6605 -1.5732,3.6819 -7.5176,3.6819 l -5.9792,0 -1.9258,-5.25 c -1.0591,-2.8875 -5.6078,-16.275 -10.1081,-29.75 -4.5003,-13.475 -8.6246,-25.175 -9.1651,-26 -0.8636,-1.31824 -1.1368,-1.29951 -2.2542,0.15459 -0.6993,0.91003 -5.9298,14.97253 -11.6234,31.25001 l -10.3519,29.5954 -6.2895,0 -6.2896,0 -4.1697,-13.25 z M 1627,1032.2111 c 0,-1.0848 30.4051,-89.85159 32.467,-94.78635 l 1.4697,-3.51757 6.7817,0.29641 6.7816,0.29641 16.1951,47.5 c 8.9073,26.125 16.2198,48.2875 16.25,49.25 0.046,1.4581 -0.8488,1.75 -5.3624,1.75 l -5.4173,0 -3.7166,-11.25 c -2.0441,-6.1875 -4.169,-11.8216 -4.7219,-12.5203 -0.7664,-0.9682 -5.7868,-1.206 -21.1162,-1 l -20.1107,0.2703 -4.1016,12 -4.1015,12 -5.6485,0.2999 c -3.1066,0.165 -5.6484,-0.1 -5.6484,-0.5888 z m 56.411,-34.06708 C 1684.3396,996.64144 1668.4462,950.5 1667,950.5 c -1.4462,0 -17.3396,46.14144 -16.411,47.64402 0.291,0.47079 7.6759,0.85598 16.411,0.85598 8.7351,0 16.12,-0.38519 16.411,-0.85598 z m 56.8295,-14.34143 0.2595,-49.30259 22.0559,0 22.0559,0 7.4921,3.7048 c 8.2344,4.07185 12.7701,9.07501 14.7753,16.2983 2.5984,9.35952 0.3308,20.55499 -5.5563,27.43275 -3.2325,3.77649 -12.4452,9.06415 -15.7924,9.06415 -3.934,0 -2.171,3.72793 10.3754,21.9388 7.2017,10.4533 13.0941,19.2434 13.0941,19.5336 0,0.2902 -3.0896,0.5276 -6.8658,0.5276 l -6.8657,0 -11.8843,-18.7485 c -6.5363,-10.3117 -12.6717,-19.53674 -13.6342,-20.50004 -1.349,-1.35013 -3.4113,-1.74795 -9,-1.73615 -3.9875,0.008 -7.8025,0.36628 -8.4777,0.79523 -0.8854,0.5625 -1.3036,6.20336 -1.5,20.23466 l -0.2723,19.4548 -5.2595,0.3026 -5.2594,0.3026 0.2594,-49.30261 z m 41.6331,-0.35769 c 10.7425,-3.19018 16.8306,-13.60921 14.1602,-24.23349 -2.7812,-11.0651 -9.2381,-14.97415 -26.239,-15.88526 -6.297,-0.33746 -13.1019,-0.30351 -15.122,0.0755 l -3.6728,0.68903 0,19.87135 c 0,14.96141 0.3089,19.99598 1.25,20.37574 3.0864,1.24538 24.6076,0.59675 29.6236,-0.89282 z m 59.367,0.3051 0.2594,-49.25 29.5,0 29.5,0 0,4.5 0,4.5 -24,0.5 -24,0.5 0,17 0,17 22.8066,0.26892 22.8065,0.26892 -0.3065,4.23108 -0.3066,4.23108 -22.5,0.5 -22.5,0.5 -0.275,16.9255 c -0.2091,12.8713 0.031,17.1194 1,17.7347 0.7013,0.4451 11.7375,0.8161 24.525,0.8245 l 23.25,0.015 0,4.5 0,4.5 -30.0094,0 -30.0094,0 0.2594,-49.25 z m 36.8552,-134.32324 c -27.8355,-14.8295 -50.7377,-35.01354 -72.1155,-63.55636 -37.7201,-50.36251 -60.1131,-110.95027 -65.9252,-178.3704 -1.498,-17.37753 -1.4484,-403.5 0.052,-403.5 2.4482,0 29.532,20.01709 47.8822,35.38874 12.004,10.0556 34.7074,32.32464 44.9717,44.11126 26.631,30.58104 44.565,61.63633 52.5766,91.04413 5.9052,21.67604 5.5592,5.72535 5.4742,252.35499 -0.043,124.51952 -0.3146,226.78202 -0.6039,227.25 -0.8223,1.33063 -1.2795,1.15529 -12.312,-4.72236 z M 527.47671,847.75 c -0.25328,-0.6875 -0.60628,-87.425 -0.78444,-192.75 -0.31927,-188.75093 -0.35364,-191.65791 -2.39406,-202.5 -4.67752,-24.8547 -9.70975,-40.62177 -18.9233,-59.29082 -25.17607,-51.01328 -68.49755,-84.52087 -123.72508,-95.69684 -25.49904,-5.16005 -54.93831,-5.33178 -80.14438,-0.46751 -43.23123,8.34277 -78.23484,29.2053 -105.15479,62.67338 -4.07805,5.07002 -8.01752,9.57002 -8.75438,10 -2.2128,1.29125 -8.62465,12.04898 -14.30875,24.00709 -9.80335,20.62409 -16.5893,45.14046 -19.23301,69.48529 C 153.35386,469.66264 153,535.15427 153,658.3788 153,760.38049 152.72686,844.54823 152.39301,845.41821 151.84754,846.83969 144.71323,847 82,847 19.286765,847 12.15246,846.83969 11.606989,845.41821 10.4628,842.4365 10.91428,217.17101 12.061134,216.46222 c 1.770751,-1.09439 19.704728,13.29617 32.444409,26.03399 6.603049,6.60208 16.747555,17.62879 22.543346,24.50379 5.836269,6.92301 11.418954,12.62902 12.512774,12.78919 1.411379,0.20667 3.681945,-1.78786 7.956654,-6.98934 26.164283,-31.83676 60.920263,-59.38886 98.731223,-78.26718 42.76432,-21.35145 83.5871,-31.77352 135.71431,-34.64791 50.91497,-2.80755 96.53292,4.98496 141.80581,24.22343 12.52395,5.32198 24.56948,11.37381 26.5193,13.32362 0.84225,0.84226 5.85356,4.22695 11.13624,7.52154 19.111,11.91875 35.51999,25.18648 52.20446,42.21071 13.32,13.59124 22.54212,25.12408 34.04566,42.57624 5.18812,7.87095 9.83598,14.06173 10.32859,13.75728 0.49261,-0.30444 3.17313,-4.32403 5.95672,-8.93241 2.78359,-4.60837 9.04329,-13.70828 13.91043,-20.22202 26.91888,-36.02575 60.06081,-63.5828 99.62894,-82.84006 35.1117,-17.08838 67.38558,-25.73121 110.45649,-29.57987 14.96344,-1.33708 51.74994,-0.75883 66.54351,1.04601 78.82832,9.61717 142.5133,39.85004 194.1886,92.18627 24.6177,24.93249 43.032,50.6586 58.2252,81.3445 22.4079,45.25735 33.4881,89.80878 36.0626,145 1.545,33.12116 1.3404,363.68661 -0.2264,365.81874 -1.1592,1.57742 -6.2994,1.68212 -70.75,1.44113 l -69.5,-0.25987 -0.5726,-189 c -0.5887,-194.30423 -0.5316,-191.62804 -4.5487,-213.3765 C 1025.5125,381.87925 984.43049,329.37071 928.64977,307.15287 905.20136,297.81322 882.64049,293.72879 854.5,293.72879 c -33.43872,0 -60.00282,5.9362 -87,19.44163 -45.47925,22.75115 -79.16148,66.31973 -92.53313,119.69331 -6.83009,27.26261 -6.36099,11.67022 -6.66802,221.63627 -0.15281,104.5 -0.51614,191.0125 -0.8074,192.25 l -0.52955,2.25 -69.51234,0 c -54.69759,0 -69.61048,-0.2664 -69.97285,-1.25 z"
       id="path3246" />
    <path
       style="fill:#3b7386"
       d="m 579,1035.3852 c -1.375,-0.2576 -3.4,-0.8638 -4.5,-1.3471 -1.1,-0.4833 -4.475,-1.9676 -7.5,-3.2985 -3.025,-1.331 -6.87072,-3.5796 -8.54605,-4.997 -3.85543,-3.2619 -8.03785,-10.9805 -8.9367,-16.4926 l -0.69305,-4.25 4.95794,0 4.95794,0 1.31046,4.6805 c 2.75145,9.8272 12.04851,15.3276 25.8776,15.3097 15.48797,-0.02 25.80288,-8.9495 23.6422,-20.4669 -1.40064,-7.4661 -6.59559,-11.03229 -27.00467,-18.53803 -7.66388,-2.8185 -15.31388,-5.83491 -17,-6.70312 -9.72033,-5.00519 -13.81759,-11.15663 -13.81239,-20.73733 0.006,-10.58541 4.33261,-16.99267 15.00488,-22.21931 5.34254,-2.61645 6.57635,-2.80948 17.74184,-2.77579 13.34857,0.0403 17.97569,1.417 24.74832,7.36345 3.69334,3.24279 7.75168,10.61216 7.75168,14.07593 0,1.71527 -0.65857,2.0109 -4.47968,2.0109 -4.16959,0 -4.61215,-0.25957 -6.39359,-3.75 -3.97251,-7.7835 -9.6699,-10.67048 -21.12673,-10.70535 -7.23963,-0.022 -9.15412,0.34344 -12.91142,2.46474 -5.68573,3.21006 -8.18602,6.67551 -8.80992,12.21066 -0.60503,5.36788 1.3364,9.6576 5.81371,12.84572 1.7174,1.2229 10.57811,4.83793 19.69047,8.03342 19.29127,6.76497 25.64081,10.58854 29.56896,17.80584 2.1275,3.90894 2.6482,6.20247 2.6482,11.66457 0,10.8551 -4.91446,18.4186 -14.9612,23.0257 -1.94634,0.8926 -4.8888,2.2862 -6.5388,3.0971 -3.03511,1.4915 -15.90269,2.554 -20.5,1.6928 z m 533.75,-0.056 c -2.0625,-0.2473 -3.75,-0.8725 -3.75,-1.3893 0,-0.5168 -0.6377,-0.9396 -1.4171,-0.9396 -2.9415,0 -10.5786,-4.0011 -14.6595,-7.68 -4.7958,-4.3235 -8.8991,-12.2068 -8.9136,-17.1248 l -0.01,-3.3048 4.6447,0.3048 c 4.5459,0.2983 4.6722,0.3981 5.9342,4.6893 1.6407,5.5784 6.2964,10.3854 12.7459,13.1599 4.285,1.8433 6.4579,2.1162 14.1677,1.779 7.7391,-0.3385 9.8216,-0.8174 13.8696,-3.1897 6.0585,-3.5505 8.6293,-7.6991 8.6342,-13.9334 0.01,-9.76874 -4.7372,-13.70935 -25.4963,-21.17522 -21.3532,-7.67953 -26.9671,-11.16936 -30.6041,-19.02508 -2.0498,-4.42728 -2.4104,-11.10765 -0.8943,-16.56535 1.5459,-5.56469 7.0974,-11.24713 14.1851,-14.51969 5.8308,-2.69216 7.1923,-2.91302 17.8133,-2.88956 14.007,0.0309 19.648,2.06471 26.3251,9.49128 4.0412,4.49476 7.1976,11.3286 6.0729,13.14832 -0.2838,0.45925 -2.402,0.82852 -4.707,0.82059 -3.9742,-0.0137 -4.3297,-0.26598 -6.8723,-4.87756 -1.9949,-3.61807 -3.8397,-5.42386 -7.2055,-7.05325 -5.8433,-2.82869 -13.9979,-3.64177 -20.6116,-2.05517 -6.5811,1.57879 -13.9169,8.09545 -14.16,12.57897 -0.6449,11.88963 1.9794,14.25232 24.6899,22.22935 21.9033,7.69345 27.0467,10.94321 31.1016,19.6512 6.1729,13.25617 -0.8219,28.75207 -15.4112,34.14107 -2.597,0.9593 -5.3007,2.1853 -6.0081,2.7245 -1.4201,1.0823 -13.5799,1.7097 -19.4638,1.0042 z m 102.25,-1.3275 c -0.825,-0.4845 -4.0965,-2.0123 -7.2699,-3.395 -15.0846,-6.5725 -23.7566,-23.7322 -23.7127,-46.92178 0.044,-23.33403 8.1003,-39.18657 23.8566,-46.94334 6.2695,-3.0865 7.1341,-3.24128 18.105,-3.24128 10.5054,0 12.0437,0.2448 17.4511,2.77714 11.8284,5.53937 18.9437,14.12922 22.7874,27.51003 2.3459,8.16677 2.812,27.70039 0.876,36.71283 -3.0362,14.1334 -11.0831,24.772 -22.7779,30.1137 -3.1986,1.461 -6.597,3.0456 -7.552,3.5214 -2.2524,1.1219 -19.8093,1.0141 -21.7636,-0.1337 z m 21.5719,-10.6773 c 6.5628,-2.2318 15.2616,-10.9667 17.7066,-17.7801 2.8908,-8.0559 4.2967,-22.31611 3.0518,-30.95687 -1.1941,-8.28898 -5.9417,-19.49321 -10.1401,-23.93038 -1.4796,-1.56378 -4.9402,-4.03247 -7.6902,-5.48597 -4.2616,-2.25246 -6.2552,-2.64479 -13.5,-2.65675 -7.5875,-0.0125 -9.0819,0.30803 -13.9206,2.98597 -10.7062,5.92531 -16.076,16.85321 -16.8389,34.26817 -1.0258,23.41793 4.645,36.07883 19.1941,42.85363 6.1657,2.871 14.9413,3.1494 22.1373,0.7023 z M -9.756402e-4,984.12716 -0.00195128,934.5 9.7490244,934.74215 c 5.3630366,0.13318 16.0509756,0.35818 23.7509756,0.5 13.010915,0.23963 14.399912,0.45424 19.660544,3.03763 7.489447,3.67792 12.333124,9.17068 14.421341,16.3539 C 72.102,970.18233 63.340128,986.36753 48.360862,990.13935 45.404711,990.88372 44,991.77231 44,992.89795 c 0,0.91328 5.885458,10.19735 13.078795,20.63125 l 13.078795,18.9708 -5.716824,0.304 c -3.144252,0.1672 -6.251965,0.099 -6.906027,-0.1523 -0.654062,-0.251 -6.929947,-9.5167 -13.946412,-20.5904 L 30.831119,991.92718 21.665559,992.21359 12.5,992.5 l -0.271272,19.7895 c -0.19983,14.5778 -0.59487,19.8901 -1.5,20.1712 -0.6758,0.2099 -3.366228,0.5868 -5.978728,0.8376 L 0,1033.7543 -9.756402e-4,984.12716 z M 47.13837,982.21483 c 14.75674,-7.27014 14.454956,-28.6627 -0.514161,-36.4473 -3.406126,-1.77133 -6.338094,-2.21938 -16.83935,-2.57331 -6.993328,-0.23569 -13.855828,-0.14224 -15.25,0.20768 L 12,944.0381 l 0,19.81429 c 0,10.89785 0.330787,20.14506 0.735083,20.54936 0.404295,0.40429 7.266795,0.59179 15.25,0.41667 12.71015,-0.27883 15.091646,-0.60255 19.153287,-2.60359 z M 109,984 l 0,-49 29.5,0 29.5,0 0,4 0,4 -23.37756,0 c -18.681,0 -23.60814,0.27784 -24.52533,1.38299 -0.7869,0.94816 -1.06121,6.52895 -0.87244,17.75 L 119.5,978.5 l 22.80657,0.26892 22.80658,0.26892 -0.30658,4.23108 L 164.5,987.5 142,988 l -22.5,0.5 0,17.5 0,17.5 24.25,0.2678 24.25,0.2678 0,4.4822 0,4.4822 -29.5,0 -29.5,0 0,-49 z m 88,48.27 c 0,-0.4589 7.425,-22.3443 16.5,-48.63406 9.075,-26.28979 16.5,-48.0075 16.5,-48.26159 0,-0.25408 3.2625,-0.32975 7.25,-0.16816 l 7.25,0.29381 16.17403,48 c 8.89572,26.4 16.20822,48.361 16.25,48.8023 0.0418,0.4412 -2.28653,0.6662 -5.17403,0.5 l -5.25,-0.3023 -4.13599,-11.8705 c -2.2748,-6.5288 -4.7498,-12.2594 -5.5,-12.7347 -2.26806,-1.4369 -38.58225,-1.114 -39.94229,0.3552 -0.63643,0.6875 -3.01953,6.425 -5.29579,12.75 l -4.13864,11.5 -5.24364,0.3023 C 199.35964,1032.9685 197,1032.729 197,1032.27 z m 56,-33.26825 c 1.27961,-0.82546 0.31282,-4.45966 -6.58003,-24.73469 -5.55864,-16.35048 -8.56959,-23.86188 -9.64887,-24.07091 -1.22208,-0.23669 -3.24896,4.73669 -9.16997,22.50045 C 223.42051,985.23897 220,996.2507 220,997.16712 c 0,0.91642 0.5625,1.89319 1.25,2.1706 2.3192,0.93578 30.23644,0.6404 31.75,-0.33597 z M 310,984 l 0,-49 5,0 5,0 0,43.3 c 0,32.3444 0.30362,43.6036 1.2,44.5 0.85822,0.8582 7.26667,1.2 22.5,1.2 l 21.3,0 0,4.5 0,4.5 -27.5,0 -27.5,0 0,-49 z m 145,0.0151 0,-49.0151 29.5,0 29.5,0 0,4 0,4 -23.37756,0 c -18.681,0 -23.60814,0.27784 -24.52533,1.38299 -0.7869,0.94816 -1.06121,6.52895 -0.87244,17.75 L 465.5,978.5 488,979 l 22.5,0.5 0,4 0,4 -22.5,0.5 -22.5,0.5 0,17.5 0,17.5 24.30662,0.2679 24.30663,0.2679 -0.30663,4.2321 -0.30662,4.2321 -29.25,0.2651 -29.25,0.2651 0,-49.0151 z M 675,989.2 c 0,-32.73333 -0.3032,-44.1032 -1.2,-45 -0.82876,-0.82876 -5.93333,-1.2 -16.5,-1.2 l -15.3,0 0,-4 0,-4 38,0 38,0 0,4 0,4 -15.3,0 c -10.56667,0 -15.67124,0.37124 -16.5,1.2 -0.8968,0.8968 -1.2,12.26667 -1.2,45 l 0,43.8 -5,0 -5,0 0,-43.8 z m 58.0045,42.6023 c 0.002,-0.7163 7.36495,-22.6773 16.36106,-48.8023 l 16.35657,-47.5 7.03637,-0.29174 7.03638,-0.29174 3.49706,10.29174 C 799.41774,992.66587 812,1030.5591 812,1031.6665 c 0,0.9301 -1.4839,1.3335 -4.90543,1.3335 l -4.90542,0 -2.95961,-8.25 c -1.62778,-4.5375 -3.50638,-9.941 -4.17466,-12.0077 -0.66828,-2.0667 -2.04943,-4.2042 -3.06922,-4.75 -2.8264,-1.5126 -37.20517,-1.2872 -39.29164,0.2577 -0.92853,0.6875 -3.41491,6.425 -5.52528,12.75 l -3.83704,11.5 -5.16585,0.3023 c -3.73298,0.2184 -5.1646,-0.059 -5.16135,-1 z m 55.70197,-33.47976 c 0.36648,-0.95502 -2.70218,-11.74572 -7.1252,-25.05526 -6.06426,-18.24829 -8.11354,-23.31082 -9.33964,-23.07254 -2.29077,0.44519 -17.62915,46.6334 -16.09863,48.47756 0.82866,0.99848 4.9227,1.3277 16.51083,1.3277 13.49884,0 15.48873,-0.20794 16.05264,-1.67746 z m 68.0063,34.05686 C 856.32075,1031.9874 856,1011.9898 856,987.94032 c 0,-38.95021 -0.17278,-43.79264 -1.58179,-44.33333 -0.86998,-0.33385 -8.06998,-0.60699 -16,-0.60699 L 824,943 l 0,-4.01203 0,-4.01202 37.75,0.26202 37.75,0.26203 0,3.5 0,3.5 -15.14872,0.2755 c -11.01425,0.20031 -15.44635,0.63413 -16.23926,1.58952 -0.74129,0.8932 -1.17404,15.21619 -1.35128,44.7245 L 866.5,1032.5 l -4.53723,0.2961 c -2.49548,0.1629 -4.85798,-0.025 -5.25,-0.4167 z M 929,984 l 0,-49 29.5,0 29.5,0 0,4 0,4 -23.37756,0 c -18.681,0 -23.60814,0.27784 -24.52533,1.38299 -0.7869,0.94816 -1.06121,6.52895 -0.87244,17.75 L 939.5,978.5 962,979 l 22.5,0.5 0,4 0,4 -22.5,0.5 -22.5,0.5 0,17.5 0,17.5 24.25,0.2678 24.25,0.2678 0,4.4822 0,4.4822 -29.5,0 -29.5,0 0,-49 z m 372.4793,47.8052 c -0.2751,-0.7179 -0.383,-22.6802 -0.2398,-48.8052 l 0.2605,-47.5 29.25,-0.2651 29.25,-0.26511 0,4.01511 0,4.0151 -22.8,0 c -16.4,0 -23.1368,0.33684 -24,1.2 -0.8345,0.83453 -1.2,6.13178 -1.2,17.39301 0,13.84342 0.2295,16.28109 1.5818,16.8 0.87,0.33385 11.0208,0.60699 22.5575,0.60699 l 20.9757,0 -0.3075,4.25 -0.3075,4.25 -22,0.5 -22,0.5 -0.5,22 -0.5,22 -4.7602,0.3052 c -3.2259,0.2068 -4.9214,-0.1155 -5.2605,-1 z M 1416,989.93426 c 0,-27.77396 -0.3676,-43.75256 -1.0352,-45 -0.9549,-1.78434 -2.2338,-1.93426 -16.5,-1.93426 l -15.4648,0 0,-4 0,-4 38,0 38,0 0,4 0,4 -15.3,0 c -10.5667,0 -15.6712,0.37124 -16.5,1.2 -0.8968,0.8968 -1.2,12.26667 -1.2,45 l 0,43.8 -5,0 -5,0 0,-43.06574 z m 92.5528,42.15114 C 1507.8051,1030.8756 1478,936.84907 1478,935.7001 c 0,-0.43995 2.5722,-0.66495 5.716,-0.5 l 5.7159,0.2999 9.7714,33.5 c 13.913,47.6987 13.6864,47 15.2428,47 1.7101,0 2.1506,-1.1676 14.901,-39.5 l 10.3115,-31 3.5206,-0.30141 3.5205,-0.30142 11.9002,35.16628 c 10.5178,31.08145 13.1916,37.47835 14.9361,35.73385 0.2473,-0.2473 6.5883,-18.5279 14.091,-40.62349 L 1601.2683,935 l 5.3659,0 c 3.635,0 5.3604,0.4032 5.3489,1.25 -0.01,0.6875 -7.5845,22.625 -16.8338,48.75 l -16.8169,47.5 -5.6801,0.3003 -5.6802,0.3003 -1.8311,-4.3003 c -1.007,-2.3652 -5.7741,-16.1455 -10.5934,-30.6229 -7.9225,-23.79944 -10.211,-28.84733 -12.1838,-26.87455 -0.3024,0.30246 -5.3542,14.19556 -11.2261,30.87355 l -10.6762,30.3236 -5.6425,0.2973 c -3.1034,0.1635 -5.9232,-0.1569 -6.2662,-0.7119 z m 119.1206,0.1646 c -0.2446,-0.4125 7.0272,-22.4625 16.1595,-49 l 16.6043,-48.25 7.0314,0.0132 7.0314,0.0132 16.25,48.24462 c 8.9375,26.53458 16.25,48.60218 16.25,49.03908 0,0.437 -2.3625,0.6585 -5.25,0.4923 l -5.25,-0.3023 -4.0424,-11.8127 c -2.2233,-6.497 -4.6983,-12.2276 -5.5,-12.7347 -1.5803,-0.9996 -36.8161,-1.3279 -39.3219,-0.3663 -0.8769,0.3365 -3.099,5.3424 -5.2156,11.75 -2.0283,6.14 -4.1327,11.7262 -4.6764,12.4137 -1.059,1.339 -9.3294,1.7496 -10.0703,0.5 z M 1683,999.01791 c 1.2784,-0.81091 0.3182,-4.46471 -6.5,-24.73469 C 1670.8091,957.3648 1668.067,950.5 1667,950.5 c -1.067,0 -3.8091,6.8648 -9.5,23.78322 -6.8182,20.26998 -7.7784,23.92378 -6.5,24.73469 0.825,0.52331 8.025,0.95146 16,0.95146 7.975,0 15.175,-0.42815 16,-0.95146 z M 1740,984 l 0,-49 21.525,0 c 18.8191,0 22.2264,0.24653 27.1045,1.96106 10.7203,3.76788 16.6615,10.44646 18.4807,20.77451 2.6486,15.03601 -5.4137,28.16878 -19.8602,32.35072 -2.9583,0.85638 -4.25,1.77415 -4.25,3.01977 0,0.98422 5.625,9.91874 12.5,19.85454 6.875,9.9357 12.5,18.5307 12.5,19.0999 0,0.6346 -2.4176,0.9198 -6.25,0.7372 l -6.25,-0.2977 -5,-7.7804 c -2.75,-4.2792 -8.6,-13.2792 -13,-20 l -8,-12.2196 -8.3469,-0.29201 c -5.2937,-0.18519 -8.8602,0.13394 -9.75,0.87245 -1.1158,0.92601 -1.4031,5.13237 -1.4031,20.54196 l 0,19.3776 -5,0 -5,0 0,-49 z m 42.0777,-0.14143 c 15.0733,-4.51607 19.7344,-23.18227 8.6489,-34.63597 -4.6036,-4.75649 -10.6995,-6.2226 -25.8729,-6.2226 -11.6151,0 -12.8779,0.17677 -13.8185,1.93426 -1.5202,2.84046 -1.3739,37.327 0.1648,38.86574 1.5759,1.57589 25.6609,1.62158 30.8777,0.0586 z m 59.6038,48.48953 C 1841.3067,1031.9733 1841,1009.91 1841,983.31845 l 0,-48.34821 29.75,0.26488 29.75,0.26488 0,3.5 0,3.5 -23.5,0.25938 c -20.6651,0.2281 -23.6508,0.46226 -24.75,1.94113 -1.8247,2.45495 -1.7557,31.63489 0.078,33.15706 0.8553,0.70988 9.1348,1.19861 23.25,1.37245 l 21.922,0.26998 0,4 0,4 -22.4531,0.26967 c -16.4317,0.19736 -22.6628,0.59962 -23.2347,1.5 -0.4299,0.67668 -0.7885,8.26273 -0.7969,16.85793 -0.012,11.7969 0.3106,15.898 1.3145,16.7311 0.8644,0.7175 9.5245,1.1977 24.75,1.3725 l 23.4202,0.2688 0,4 0,4 -29.0685,0.2648 c -15.9877,0.1457 -29.3752,-0.042 -29.75,-0.4167 z M 1876.477,847.90204 C 1841.3498,828.38808 1812.9657,799.71971 1788.63,759.17519 1759.6234,710.84857 1743.6058,657.12476 1739.9797,596 c -0.7733,-13.03656 -0.8877,-73.51803 -0.3872,-204.79891 0.6439,-168.90329 0.8572,-186.2425 2.2843,-185.69485 2.3138,0.88786 22.8391,15.75686 32.9055,23.83747 29.4967,23.67792 56.0322,50.50282 74.3802,75.1914 23.5712,31.71683 36.6781,62.38785 40.7846,95.43866 2.002,16.11234 0.6655,454.02623 -1.3856,454.02623 -0.6091,0 -6.0472,-2.74408 -12.0845,-6.09796 z M 527.73117,658.25 C 527.37164,447.25814 527.80767,460.94257 520.54089,432.58953 508.41615,385.28203 482.43938,347.61349 444.5,322.32376 399.19589,292.12483 332.48111,284.30068 277,302.67975 c -32.95853,10.91808 -64.23238,33.26451 -83.33692,59.54761 -2.2897,3.15004 -4.90937,5.97979 -5.8215,6.28832 -2.63667,0.89186 -12.63789,18.42511 -18.81474,32.98432 -4.86716,11.47222 -8.15538,22.00795 -11.41744,36.58246 -5.66513,25.31115 -5.58931,22.29104 -5.59977,223.06055 -0.009,167.44216 -0.15699,184.69956 -1.59142,185.25 C 149.54823,846.72686 118.76003,847 82,847 45.239966,847 14.451771,846.72686 13.581787,846.39301 12.144045,845.8413 12,817.15583 12,531.39301 12,345.28783 12.367979,217 12.9018,217 c 0.49599,0 5.10849,3.2228 10.25,7.16177 11.421026,8.7498 30.906765,28.22364 44.368242,44.34116 5.663489,6.78094 10.8897,12.12292 12.02025,12.28651 1.472578,0.2131 4.039563,-2.18915 9.731252,-9.10672 8.635134,-10.49499 29.578296,-31.21295 40.245236,-39.81249 47.83563,-38.5644 102.09264,-61.15958 166.98322,-69.53971 21.7183,-2.80475 69.80873,-2.53221 89.5,0.50722 25.75915,3.97603 52.60975,11.37813 74,20.40013 13.33776,5.62561 28.2298,13.2106 33.42823,17.02607 2.42496,1.77983 9.05813,6.25435 14.74039,9.94338 28.90959,18.76862 56.91095,46.60693 76.23662,75.79268 4.55236,6.875 9.03388,13.7375 9.95894,15.25 0.92506,1.5125 2.29997,2.75 3.05537,2.75 0.75539,0 3.5327,-3.4875 6.1718,-7.75 30.63426,-49.47841 74.93823,-88.03855 126.50862,-110.10725 38.73505,-16.57603 78.08512,-24.20942 124.7994,-24.20942 54.85279,0 101.17968,10.13147 147.10063,32.17021 64.2513,30.83596 113.329,79.69842 145.0327,144.39646 17.0129,34.7184 26.879,67.33665 32.3645,107 3.4705,25.09381 3.7074,40.58202 3.4031,222.5 l -0.3003,179.5 -70,0 -70,0 -0.5424,-191.5 c -0.6001,-211.86196 -0.1297,-196.88963 -7.0295,-223.74084 C 1017.3824,363.97874 968.98913,314.58133 904,298.6145 c -28.74925,-7.06325 -66.90161,-7.47876 -94.70214,-1.03139 -31.5103,7.30773 -61.33019,23.00845 -83.14557,43.77767 -23.99254,22.84198 -43.65824,57.86422 -52.16894,92.9066 -6.79417,27.97462 -6.3565,13.4117 -6.71645,223.48262 l -0.32598,190.25 -69.44321,0 -69.4432,0 -0.32334,-189.75 z"
       id="path3244" />
    <path
       style="fill:#5f6062"
       d="m 579,1035.3852 c -1.375,-0.2576 -3.4,-0.8638 -4.5,-1.3471 -1.1,-0.4833 -4.475,-1.9676 -7.5,-3.2985 -3.025,-1.331 -6.87072,-3.5796 -8.54605,-4.997 -3.85543,-3.2619 -8.03785,-10.9805 -8.9367,-16.4926 l -0.69305,-4.25 4.95794,0 4.95794,0 1.31046,4.6805 c 2.75145,9.8272 12.04851,15.3276 25.8776,15.3097 15.48797,-0.02 25.80288,-8.9495 23.6422,-20.4669 -1.40064,-7.4661 -6.59559,-11.03229 -27.00467,-18.53803 -7.66388,-2.8185 -15.31388,-5.83491 -17,-6.70312 -9.72033,-5.00519 -13.81759,-11.15663 -13.81239,-20.73733 0.006,-10.58541 4.33261,-16.99267 15.00488,-22.21931 5.34254,-2.61645 6.57635,-2.80948 17.74184,-2.77579 13.34857,0.0403 17.97569,1.417 24.74832,7.36345 3.69334,3.24279 7.75168,10.61216 7.75168,14.07593 0,1.71527 -0.65857,2.0109 -4.47968,2.0109 -4.16959,0 -4.61215,-0.25957 -6.39359,-3.75 -3.97251,-7.7835 -9.6699,-10.67048 -21.12673,-10.70535 -7.23963,-0.022 -9.15412,0.34344 -12.91142,2.46474 -5.68573,3.21006 -8.18602,6.67551 -8.80992,12.21066 -0.60503,5.36788 1.3364,9.6576 5.81371,12.84572 1.7174,1.2229 10.57811,4.83793 19.69047,8.03342 19.29127,6.76497 25.64081,10.58854 29.56896,17.80584 2.1275,3.90894 2.6482,6.20247 2.6482,11.66457 0,10.8551 -4.91446,18.4186 -14.9612,23.0257 -1.94634,0.8926 -4.8888,2.2862 -6.5388,3.0971 -3.03511,1.4915 -15.90269,2.554 -20.5,1.6928 z m 533.75,-0.056 c -2.0625,-0.2473 -3.75,-0.8725 -3.75,-1.3893 0,-0.5168 -0.6377,-0.9396 -1.4171,-0.9396 -2.9415,0 -10.5786,-4.0011 -14.6595,-7.68 -4.7958,-4.3235 -8.8991,-12.2068 -8.9136,-17.1248 l -0.01,-3.3048 4.6447,0.3048 c 4.5459,0.2983 4.6722,0.3981 5.9342,4.6893 1.6407,5.5784 6.2964,10.3854 12.7459,13.1599 4.285,1.8433 6.4579,2.1162 14.1677,1.779 7.7391,-0.3385 9.8216,-0.8174 13.8696,-3.1897 6.0585,-3.5505 8.6293,-7.6991 8.6342,-13.9334 0.01,-9.76874 -4.7372,-13.70935 -25.4963,-21.17522 -21.3532,-7.67953 -26.9671,-11.16936 -30.6041,-19.02508 -2.0498,-4.42728 -2.4104,-11.10765 -0.8943,-16.56535 1.5459,-5.56469 7.0974,-11.24713 14.1851,-14.51969 5.8308,-2.69216 7.1923,-2.91302 17.8133,-2.88956 14.007,0.0309 19.648,2.06471 26.3251,9.49128 4.0412,4.49476 7.1976,11.3286 6.0729,13.14832 -0.2838,0.45925 -2.402,0.82852 -4.707,0.82059 -3.9742,-0.0137 -4.3297,-0.26598 -6.8723,-4.87756 -1.9949,-3.61807 -3.8397,-5.42386 -7.2055,-7.05325 -5.8433,-2.82869 -13.9979,-3.64177 -20.6116,-2.05517 -6.5811,1.57879 -13.9169,8.09545 -14.16,12.57897 -0.6449,11.88963 1.9794,14.25232 24.6899,22.22935 21.9033,7.69345 27.0467,10.94321 31.1016,19.6512 6.1729,13.25617 -0.8219,28.75207 -15.4112,34.14107 -2.597,0.9593 -5.3007,2.1853 -6.0081,2.7245 -1.4201,1.0823 -13.5799,1.7097 -19.4638,1.0042 z m 102.25,-1.3275 c -0.825,-0.4845 -4.0965,-2.0123 -7.2699,-3.395 -15.0846,-6.5725 -23.7566,-23.7322 -23.7127,-46.92178 0.044,-23.33403 8.1003,-39.18657 23.8566,-46.94334 6.2695,-3.0865 7.1341,-3.24128 18.105,-3.24128 10.5054,0 12.0437,0.2448 17.4511,2.77714 11.8284,5.53937 18.9437,14.12922 22.7874,27.51003 2.3459,8.16677 2.812,27.70039 0.876,36.71283 -3.0362,14.1334 -11.0831,24.772 -22.7779,30.1137 -3.1986,1.461 -6.597,3.0456 -7.552,3.5214 -2.2524,1.1219 -19.8093,1.0141 -21.7636,-0.1337 z m 21.5719,-10.6773 c 6.5628,-2.2318 15.2616,-10.9667 17.7066,-17.7801 2.8908,-8.0559 4.2967,-22.31611 3.0518,-30.95687 -1.1941,-8.28898 -5.9417,-19.49321 -10.1401,-23.93038 -1.4796,-1.56378 -4.9402,-4.03247 -7.6902,-5.48597 -4.2616,-2.25246 -6.2552,-2.64479 -13.5,-2.65675 -7.5875,-0.0125 -9.0819,0.30803 -13.9206,2.98597 -10.7062,5.92531 -16.076,16.85321 -16.8389,34.26817 -1.0258,23.41793 4.645,36.07883 19.1941,42.85363 6.1657,2.871 14.9413,3.1494 22.1373,0.7023 z M -9.756402e-4,984.12716 -0.00195128,934.5 9.7490244,934.74215 c 5.3630366,0.13318 16.0509756,0.35818 23.7509756,0.5 13.010915,0.23963 14.399912,0.45424 19.660544,3.03763 7.489447,3.67792 12.333124,9.17068 14.421341,16.3539 C 72.102,970.18233 63.340128,986.36753 48.360862,990.13935 45.404711,990.88372 44,991.77231 44,992.89795 c 0,0.91328 5.885458,10.19735 13.078795,20.63125 l 13.078795,18.9708 -5.716824,0.304 c -3.144252,0.1672 -6.251965,0.099 -6.906027,-0.1523 -0.654062,-0.251 -6.929947,-9.5167 -13.946412,-20.5904 L 30.831119,991.92718 21.665559,992.21359 12.5,992.5 l -0.271272,19.7895 c -0.19983,14.5778 -0.59487,19.8901 -1.5,20.1712 -0.6758,0.2099 -3.366228,0.5868 -5.978728,0.8376 L 0,1033.7543 -9.756402e-4,984.12716 z M 47.13837,982.21483 c 14.75674,-7.27014 14.454956,-28.6627 -0.514161,-36.4473 -3.406126,-1.77133 -6.338094,-2.21938 -16.83935,-2.57331 -6.993328,-0.23569 -13.855828,-0.14224 -15.25,0.20768 L 12,944.0381 l 0,19.81429 c 0,10.89785 0.330787,20.14506 0.735083,20.54936 0.404295,0.40429 7.266795,0.59179 15.25,0.41667 12.71015,-0.27883 15.091646,-0.60255 19.153287,-2.60359 z M 109,984 l 0,-49 29.5,0 29.5,0 0,4 0,4 -23.37756,0 c -18.681,0 -23.60814,0.27784 -24.52533,1.38299 -0.7869,0.94816 -1.06121,6.52895 -0.87244,17.75 L 119.5,978.5 l 22.80657,0.26892 22.80658,0.26892 -0.30658,4.23108 L 164.5,987.5 142,988 l -22.5,0.5 0,17.5 0,17.5 24.25,0.2678 24.25,0.2678 0,4.4822 0,4.4822 -29.5,0 -29.5,0 0,-49 z m 88,48.27 c 0,-0.4589 7.425,-22.3443 16.5,-48.63406 9.075,-26.28979 16.5,-48.0075 16.5,-48.26159 0,-0.25408 3.2625,-0.32975 7.25,-0.16816 l 7.25,0.29381 16.17403,48 c 8.89572,26.4 16.20822,48.361 16.25,48.8023 0.0418,0.4412 -2.28653,0.6662 -5.17403,0.5 l -5.25,-0.3023 -4.13599,-11.8705 c -2.2748,-6.5288 -4.7498,-12.2594 -5.5,-12.7347 -2.26806,-1.4369 -38.58225,-1.114 -39.94229,0.3552 -0.63643,0.6875 -3.01953,6.425 -5.29579,12.75 l -4.13864,11.5 -5.24364,0.3023 C 199.35964,1032.9685 197,1032.729 197,1032.27 z m 56,-33.26825 c 1.27961,-0.82546 0.31282,-4.45966 -6.58003,-24.73469 -5.55864,-16.35048 -8.56959,-23.86188 -9.64887,-24.07091 -1.22208,-0.23669 -3.24896,4.73669 -9.16997,22.50045 C 223.42051,985.23897 220,996.2507 220,997.16712 c 0,0.91642 0.5625,1.89319 1.25,2.1706 2.3192,0.93578 30.23644,0.6404 31.75,-0.33597 z M 310,984 l 0,-49 5,0 5,0 0,43.3 c 0,32.3444 0.30362,43.6036 1.2,44.5 0.85822,0.8582 7.26667,1.2 22.5,1.2 l 21.3,0 0,4.5 0,4.5 -27.5,0 -27.5,0 0,-49 z m 145,0.0151 0,-49.0151 29.5,0 29.5,0 0,4 0,4 -23.37756,0 c -18.681,0 -23.60814,0.27784 -24.52533,1.38299 -0.7869,0.94816 -1.06121,6.52895 -0.87244,17.75 L 465.5,978.5 488,979 l 22.5,0.5 0,4 0,4 -22.5,0.5 -22.5,0.5 0,17.5 0,17.5 24.30662,0.2679 24.30663,0.2679 -0.30663,4.2321 -0.30662,4.2321 -29.25,0.2651 -29.25,0.2651 0,-49.0151 z M 675,989.2 c 0,-32.73333 -0.3032,-44.1032 -1.2,-45 -0.82876,-0.82876 -5.93333,-1.2 -16.5,-1.2 l -15.3,0 0,-4 0,-4 38,0 38,0 0,4 0,4 -15.3,0 c -10.56667,0 -15.67124,0.37124 -16.5,1.2 -0.8968,0.8968 -1.2,12.26667 -1.2,45 l 0,43.8 -5,0 -5,0 0,-43.8 z m 58.0045,42.6023 c 0.002,-0.7163 7.36495,-22.6773 16.36106,-48.8023 l 16.35657,-47.5 7.03637,-0.29174 7.03638,-0.29174 3.49706,10.29174 C 799.41774,992.66587 812,1030.5591 812,1031.6665 c 0,0.9301 -1.4839,1.3335 -4.90543,1.3335 l -4.90542,0 -2.95961,-8.25 c -1.62778,-4.5375 -3.50638,-9.941 -4.17466,-12.0077 -0.66828,-2.0667 -2.04943,-4.2042 -3.06922,-4.75 -2.8264,-1.5126 -37.20517,-1.2872 -39.29164,0.2577 -0.92853,0.6875 -3.41491,6.425 -5.52528,12.75 l -3.83704,11.5 -5.16585,0.3023 c -3.73298,0.2184 -5.1646,-0.059 -5.16135,-1 z m 55.70197,-33.47976 c 0.36648,-0.95502 -2.70218,-11.74572 -7.1252,-25.05526 -6.06426,-18.24829 -8.11354,-23.31082 -9.33964,-23.07254 -2.29077,0.44519 -17.62915,46.6334 -16.09863,48.47756 0.82866,0.99848 4.9227,1.3277 16.51083,1.3277 13.49884,0 15.48873,-0.20794 16.05264,-1.67746 z m 68.0063,34.05686 C 856.32075,1031.9874 856,1011.9898 856,987.94032 c 0,-38.95021 -0.17278,-43.79264 -1.58179,-44.33333 -0.86998,-0.33385 -8.06998,-0.60699 -16,-0.60699 L 824,943 l 0,-4.01203 0,-4.01202 37.75,0.26202 37.75,0.26203 0,3.5 0,3.5 -15.14872,0.2755 c -11.01425,0.20031 -15.44635,0.63413 -16.23926,1.58952 -0.74129,0.8932 -1.17404,15.21619 -1.35128,44.7245 L 866.5,1032.5 l -4.53723,0.2961 c -2.49548,0.1629 -4.85798,-0.025 -5.25,-0.4167 z M 929,984 l 0,-49 29.5,0 29.5,0 0,4 0,4 -23.37756,0 c -18.681,0 -23.60814,0.27784 -24.52533,1.38299 -0.7869,0.94816 -1.06121,6.52895 -0.87244,17.75 L 939.5,978.5 962,979 l 22.5,0.5 0,4 0,4 -22.5,0.5 -22.5,0.5 0,17.5 0,17.5 24.25,0.2678 24.25,0.2678 0,4.4822 0,4.4822 -29.5,0 -29.5,0 0,-49 z m 372.4793,47.8052 c -0.2751,-0.7179 -0.383,-22.6802 -0.2398,-48.8052 l 0.2605,-47.5 29.25,-0.2651 29.25,-0.26511 0,4.01511 0,4.0151 -22.8,0 c -16.4,0 -23.1368,0.33684 -24,1.2 -0.8345,0.83453 -1.2,6.13178 -1.2,17.39301 0,13.84342 0.2295,16.28109 1.5818,16.8 0.87,0.33385 11.0208,0.60699 22.5575,0.60699 l 20.9757,0 -0.3075,4.25 -0.3075,4.25 -22,0.5 -22,0.5 -0.5,22 -0.5,22 -4.7602,0.3052 c -3.2259,0.2068 -4.9214,-0.1155 -5.2605,-1 z M 1416,989.93426 c 0,-27.77396 -0.3676,-43.75256 -1.0352,-45 -0.9549,-1.78434 -2.2338,-1.93426 -16.5,-1.93426 l -15.4648,0 0,-4 0,-4 38,0 38,0 0,4 0,4 -15.3,0 c -10.5667,0 -15.6712,0.37124 -16.5,1.2 -0.8968,0.8968 -1.2,12.26667 -1.2,45 l 0,43.8 -5,0 -5,0 0,-43.06574 z m 92.5528,42.15114 C 1507.8051,1030.8756 1478,936.84907 1478,935.7001 c 0,-0.43995 2.5722,-0.66495 5.716,-0.5 l 5.7159,0.2999 9.7714,33.5 c 13.913,47.6987 13.6864,47 15.2428,47 1.7101,0 2.1506,-1.1676 14.901,-39.5 l 10.3115,-31 3.5206,-0.30141 3.5205,-0.30142 11.9002,35.16628 c 10.5178,31.08145 13.1916,37.47835 14.9361,35.73385 0.2473,-0.2473 6.5883,-18.5279 14.091,-40.62349 L 1601.2683,935 l 5.3659,0 c 3.635,0 5.3604,0.4032 5.3489,1.25 -0.01,0.6875 -7.5845,22.625 -16.8338,48.75 l -16.8169,47.5 -5.6801,0.3003 -5.6802,0.3003 -1.8311,-4.3003 c -1.007,-2.3652 -5.7741,-16.1455 -10.5934,-30.6229 -7.9225,-23.79944 -10.211,-28.84733 -12.1838,-26.87455 -0.3024,0.30246 -5.3542,14.19556 -11.2261,30.87355 l -10.6762,30.3236 -5.6425,0.2973 c -3.1034,0.1635 -5.9232,-0.1569 -6.2662,-0.7119 z m 119.1206,0.1646 c -0.2446,-0.4125 7.0272,-22.4625 16.1595,-49 l 16.6043,-48.25 7.0314,0.0132 7.0314,0.0132 16.25,48.24462 c 8.9375,26.53458 16.25,48.60218 16.25,49.03908 0,0.437 -2.3625,0.6585 -5.25,0.4923 l -5.25,-0.3023 -4.0424,-11.8127 c -2.2233,-6.497 -4.6983,-12.2276 -5.5,-12.7347 -1.5803,-0.9996 -36.8161,-1.3279 -39.3219,-0.3663 -0.8769,0.3365 -3.099,5.3424 -5.2156,11.75 -2.0283,6.14 -4.1327,11.7262 -4.6764,12.4137 -1.059,1.339 -9.3294,1.7496 -10.0703,0.5 z M 1683,999.01791 c 1.2784,-0.81091 0.3182,-4.46471 -6.5,-24.73469 C 1670.8091,957.3648 1668.067,950.5 1667,950.5 c -1.067,0 -3.8091,6.8648 -9.5,23.78322 -6.8182,20.26998 -7.7784,23.92378 -6.5,24.73469 0.825,0.52331 8.025,0.95146 16,0.95146 7.975,0 15.175,-0.42815 16,-0.95146 z M 1740,984 l 0,-49 21.525,0 c 18.8191,0 22.2264,0.24653 27.1045,1.96106 10.7203,3.76788 16.6615,10.44646 18.4807,20.77451 2.6486,15.03601 -5.4137,28.16878 -19.8602,32.35072 -2.9583,0.85638 -4.25,1.77415 -4.25,3.01977 0,0.98422 5.625,9.91874 12.5,19.85454 6.875,9.9357 12.5,18.5307 12.5,19.0999 0,0.6346 -2.4176,0.9198 -6.25,0.7372 l -6.25,-0.2977 -5,-7.7804 c -2.75,-4.2792 -8.6,-13.2792 -13,-20 l -8,-12.2196 -8.3469,-0.29201 c -5.2937,-0.18519 -8.8602,0.13394 -9.75,0.87245 -1.1158,0.92601 -1.4031,5.13237 -1.4031,20.54196 l 0,19.3776 -5,0 -5,0 0,-49 z m 42.0777,-0.14143 c 15.0733,-4.51607 19.7344,-23.18227 8.6489,-34.63597 -4.6036,-4.75649 -10.6995,-6.2226 -25.8729,-6.2226 -11.6151,0 -12.8779,0.17677 -13.8185,1.93426 -1.5202,2.84046 -1.3739,37.327 0.1648,38.86574 1.5759,1.57589 25.6609,1.62158 30.8777,0.0586 z m 59.6038,48.48953 C 1841.3067,1031.9733 1841,1009.91 1841,983.31845 l 0,-48.34821 29.75,0.26488 29.75,0.26488 0,3.5 0,3.5 -23.5,0.25938 c -20.6651,0.2281 -23.6508,0.46226 -24.75,1.94113 -1.8247,2.45495 -1.7557,31.63489 0.078,33.15706 0.8553,0.70988 9.1348,1.19861 23.25,1.37245 l 21.922,0.26998 0,4 0,4 -22.4531,0.26967 c -16.4317,0.19736 -22.6628,0.59962 -23.2347,1.5 -0.4299,0.67668 -0.7885,8.26273 -0.7969,16.85793 -0.012,11.7969 0.3106,15.898 1.3145,16.7311 0.8644,0.7175 9.5245,1.1977 24.75,1.3725 l 23.4202,0.2688 0,4 0,4 -29.0685,0.2648 c -15.9877,0.1457 -29.3752,-0.042 -29.75,-0.4167 z m 36.3184,-184.61777 c -18.1196,-10.05108 -30.2432,-19.04997 -45.3982,-33.69718 -33.362,-32.24428 -61.328,-80.16532 -77.0526,-132.03315 -7.333,-24.18799 -12.4765,-52.99363 -14.4967,-81.18739 -1.3036,-18.19271 -1.4718,-393.43539 -0.1767,-394.23578 1.8695,-1.15545 33.6664,22.95046 54.0453,40.97292 50.9842,45.0889 81.3963,90.90612 92.2311,138.95025 2.2462,9.9601 2.2567,10.41099 2.631,113 0.4219,115.64626 -0.6922,353.5 -1.6557,353.5 -0.3452,0 -4.9026,-2.37135 -10.1275,-5.26967 z M 528.73147,658.25 C 528.36841,452.31129 528.69235,464.07436 522.65228,437.5 514.09083,399.83244 494.7696,365.0045 468.82224,340.46744 443.57641,316.59377 413.2541,301.66619 376,294.77136 c -15.56782,-2.88123 -54.35973,-3.13913 -69,-0.45874 -30.60591,5.60344 -55.29182,15.63816 -77.19999,31.38149 -10.29819,7.40033 -25.19437,21.46925 -33.05503,31.21929 -3.36404,4.17263 -7.94536,9.41201 -10.18071,11.64306 -2.23535,2.23105 -6.62589,8.84873 -9.75675,14.70596 -10.93343,20.4543 -18.71644,43.48297 -22.21734,65.73758 -0.82195,5.225 -1.80996,11.075 -2.19558,13 -0.38563,1.925 -0.96966,89 -1.29787,193.5 l -0.59673,190 -68.5,0 -68.5,0 -0.251576,-313.81922 -0.251576,-313.81921 3.251576,2.26498 C 30.699568,230.1929 49.421962,248.26049 65.512598,267.66773 76.361489,280.7528 77.626645,282 80.051207,282 c 0.917921,0 6.217307,-5.33081 11.776414,-11.84623 C 142.35888,210.92971 212.06532,174.37641 295.5,163.35016 c 19.92803,-2.63357 70.63957,-2.6294 88,0.007 23.95048,3.63752 43.55524,8.50012 64,15.87403 12.02835,4.33833 40.13452,17.51144 43.12592,20.21275 1.03074,0.93078 8.18551,5.82412 15.89949,10.87408 16.85199,11.03216 26.3959,18.66478 40.835,32.65726 16.87377,16.35184 36.0338,40.60468 45.60593,57.72816 2.42967,4.34642 4.0134,5.5874 5.68392,4.4538 0.53289,-0.36161 3.1773,-4.25748 5.87646,-8.65748 C 640.78767,237.38952 696.95308,194.50795 763.5,175.1257 c 58.08546,-16.9178 126.19887,-16.757 187.29847,0.44218 42.83134,12.05677 83.86753,33.8388 117.70153,62.47595 10.6558,9.0191 32.4317,31.39379 40.833,41.95593 41.5161,52.19387 66.2268,117.38396 71.6415,189 0.641,8.47813 1.0215,81.29527 1.0231,195.75 l 0,182.25 -69.4752,0 -69.4753,0 -0.3155,-190.75 c -0.3491,-211.07285 0.1445,-194.95334 -6.8361,-223.25 -11.6507,-47.22736 -39.42129,-87.18041 -78.13864,-112.41666 -30.79041,-20.06943 -68.61869,-29.73872 -110.7032,-28.29687 -63.59849,2.17893 -116.00004,30.93539 -148.51529,81.5009 -11.28522,17.55 -21.86745,43.38549 -26.50634,64.71263 -5.70632,26.2346 -5.41026,14.95169 -5.76604,219.75 l -0.32791,188.75 -68.43813,0 -68.43814,0 -0.33274,-188.75 z"
       id="path3242" />
    <path
       style="fill:#004c65"
       d="m 1877.9999,847.73033 c -18.1196,-10.05108 -30.2432,-19.04997 -45.3982,-33.69718 -33.362,-32.24428 -61.328,-80.16532 -77.0526,-132.03315 -7.333,-24.18799 -12.4765,-52.99363 -14.4967,-81.18739 -1.3036,-18.19271 -1.4718,-393.43539 -0.1767,-394.23578 1.8695,-1.15545 33.6664,22.95046 54.0453,40.97292 50.9842,45.0889 81.3963,90.90612 92.2311,138.95025 2.2462,9.9601 2.2567,10.41099 2.631,113 0.4219,115.64626 -0.6922,353.5 -1.6557,353.5 -0.3452,0 -4.9026,-2.37135 -10.1275,-5.26967 z M 528.73147,658.25 C 528.36841,452.31129 528.69235,464.07436 522.65228,437.5 514.09083,399.83244 494.7696,365.0045 468.82224,340.46744 443.57641,316.59377 413.2541,301.66619 376,294.77136 c -15.56782,-2.88123 -54.35973,-3.13913 -69,-0.45874 -30.60591,5.60344 -55.29182,15.63816 -77.19999,31.38149 -10.29819,7.40033 -25.19437,21.46925 -33.05503,31.21929 -3.36404,4.17263 -7.94536,9.41201 -10.18071,11.64306 -2.23535,2.23105 -6.62589,8.84873 -9.75675,14.70596 -10.93343,20.4543 -18.71644,43.48297 -22.21734,65.73758 -0.82195,5.225 -1.80996,11.075 -2.19558,13 -0.38563,1.925 -0.96966,89 -1.29787,193.5 l -0.59673,190 -68.5,0 -68.5,0 -0.251576,-313.81922 -0.251576,-313.81921 3.251576,2.26498 C 30.699568,230.1929 49.421962,248.26049 65.512598,267.66773 76.361489,280.7528 77.626645,282 80.051207,282 c 0.917921,0 6.217307,-5.33081 11.776414,-11.84623 C 142.35888,210.92971 212.06532,174.37641 295.5,163.35016 c 19.92803,-2.63357 70.63957,-2.6294 88,0.007 23.95048,3.63752 43.55524,8.50012 64,15.87403 12.02835,4.33833 40.13452,17.51144 43.12592,20.21275 1.03074,0.93078 8.18551,5.82412 15.89949,10.87408 16.85199,11.03216 26.3959,18.66478 40.835,32.65726 16.87377,16.35184 36.0338,40.60468 45.60593,57.72816 2.42967,4.34642 4.0134,5.5874 5.68392,4.4538 0.53289,-0.36161 3.1773,-4.25748 5.87646,-8.65748 C 640.78767,237.38952 696.95308,194.50795 763.5,175.1257 c 58.08546,-16.9178 126.19887,-16.757 187.29847,0.44218 42.83134,12.05677 83.86753,33.8388 117.70153,62.47595 10.6558,9.0191 32.4317,31.39379 40.833,41.95593 41.5161,52.19387 66.2268,117.38396 71.6415,189 0.641,8.47813 1.0215,81.29527 1.0231,195.75 l 0,182.25 -69.4752,0 -69.4753,0 -0.3155,-190.75 c -0.3491,-211.07285 0.1445,-194.95334 -6.8361,-223.25 -11.6507,-47.22736 -39.42129,-87.18041 -78.13864,-112.41666 -30.79041,-20.06943 -68.61869,-29.73872 -110.7032,-28.29687 -63.59849,2.17893 -116.00004,30.93539 -148.51529,81.5009 -11.28522,17.55 -21.86745,43.38549 -26.50634,64.71263 -5.70632,26.2346 -5.41026,14.95169 -5.76604,219.75 l -0.32791,188.75 -68.43813,0 -68.43814,0 -0.33274,-188.75 z"
       id="path3240" />
  </g>
</svg>
